<?xml version="1.0" encoding="UTF-8" standalone="no"?>
<svg
   xmlns:dc="http://purl.org/dc/elements/1.1/"
   xmlns:cc="http://creativecommons.org/ns#"
   xmlns:rdf="http://www.w3.org/1999/02/22-rdf-syntax-ns#"
   xmlns:svg="http://www.w3.org/2000/svg"
   xmlns="http://www.w3.org/2000/svg"
   xmlns:sodipodi="http://sodipodi.sourceforge.net/DTD/sodipodi-0.dtd"
   xmlns:inkscape="http://www.inkscape.org/namespaces/inkscape"
   viewBox="0 0 835.6 258.5"
   version="1.1"
   id="svg849"
   sodipodi:docname="komtek-logo.svg"
   inkscape:version="1.0.1 (3bc2e813f5, 2020-09-07)">
  <metadata
     id="metadata855">
    <rdf:RDF>
      <cc:Work
         rdf:about="">
        <dc:format>image/svg+xml</dc:format>
        <dc:type
           rdf:resource="http://purl.org/dc/dcmitype/StillImage" />
        <dc:title></dc:title>
      </cc:Work>
    </rdf:RDF>
  </metadata>
  <defs
     id="defs853" />
  <sodipodi:namedview
     pagecolor="#ffffff"
     bordercolor="#666666"
     borderopacity="1"
     objecttolerance="10"
     gridtolerance="10"
     guidetolerance="10"
     inkscape:pageopacity="0"
     inkscape:pageshadow="2"
     inkscape:window-width="1431"
     inkscape:window-height="1019"
     id="namedview851"
     showgrid="false"
     inkscape:zoom="0.70710678"
     inkscape:cx="433.10893"
     inkscape:cy="175.98161"
     inkscape:window-x="96"
     inkscape:window-y="0"
     inkscape:window-maximized="0"
     inkscape:current-layer="svg849" />
  <path
     fill="#FFF"
     stroke="#FFF"
     stroke-miterlimit="10"
     d="M8.1.7S.9 4.4.5 9.8c-.3 5.3 1.2 24.4 1.2 24.4L2 61.4l2.8 42.2s-.2 42.4 3.6 61.7c3.8 19.3 4.3 29 4.3 29 0 4.8 4.6 19.6 4.8 25.2.3 5.6.3 8.9.8 12.9s1.9 11 2.4 14.2c.5 3.2.5 8.6 2.4 10.2 1.9 1.6 4.8 2.4 5.1-2.1.3-4.6-1.3-20.9-.5-31.1.8-10.2 2.7-25.2 2.7-31.9 0-6.7 1.3-14.5 1.3-20.1 0-5.6-.3-16.6 9.1-11.8 9.4 4.8 29.3 16.6 34.6 18.8 5.4 2.1 23.1 13.2 24.2 14.2 1.1 1.1 5.9 4 8.6 5.9 2.7 1.9 11 9.4 15 10.7 4 1.3 7.8 4 9.4 5.4 1.6 1.3 7 1.9 9.1 2.4 2.1.5 6.2 1.1 8.9 1.1s7.2-5.4 2.1-8.3c-5.1-3-23.9-15.8-35.7-26-11.8-10.2-30.3-29.5-36.2-34.6-5.9-5.1-14.8-13.2-19.6-16.4-4.8-3.2-10.5-6.2-9.9-12.3.5-6.2 7.5-10.5 10.2-12.6 2.7-2.1 11.8-9.4 14-12.1 2.1-2.7 20.9-22.5 25.2-26 4.3-3.5 9.9-7.5 11.5-8.9 1.6-1.3 9.1-9.1 13.7-14.2s12.9-11.5 15-16.1c2.1-4.6 4-7.8 1.6-8.6-2.4-.8-6.2.5-16.6 8.9-10.5 8.3-23.9 19.1-28.2 21.7-4.3 2.7-14.8 8.9-19.1 11.8-4.3 3-7.5 7-12.3 10.2-4.8 3.2-5.9 4.3-10.5 8.1s-8.6 5.6-11.3 8.9c-2.7 3.2-3.8 4.6-7.2 4.6-3.5 0-3.2-13.2-2.1-21.7 1.1-8.6 3-23.9 3.8-28.7.8-4.8 2.7-11.5 2.7-15.3 0-3.8-2.4-16.4-10.2-20.7C23.8 5.2 17.7-.6 8.1.7z"
     id="path845"
     style="fill:#1a1a1a" />
  <path
     fill="#FFF"
     stroke="#FFF"
     stroke-miterlimit="10"
     d="M171.9 69.1c-6.2 1.6-8.6 2.7-12.9 7s-16.4 13.7-20.4 22.8c-4 9.1-8.1 23.1-6.2 33 1.9 9.9 16.1 31.7 24.2 37 0 0 13.2 11.2 28.1 10.4 14.9-.8 18.4-3.8 25.6-8.6 7.2-4.7 12.6-8 16.8-12.6 4.2-4.6 11.8-16.1 11.6-27.4-.2-11.3-1.8-21.3-4.2-24.3-2.4-3-4-7-7.2-8.7-3.2-1.6-4.6-5.2-7.2-1.4-2.6 3.8.4 7 1 9.9.6 2.8 4.6 14.9 1.6 23-3 8.1-8.9 17.5-13.1 21.1-4.2 3.6-6.6 4-11.3 7.2-4.6 3.2-7 6.2-13.3 6.2-6.2 0-16.7.4-23.4-7.2-6.6-7.7-6.6-21.1-4-27.6 2.6-6.4 4.2-9.7 6.4-12.9 2.2-3.2 10.5-9.7 14.3-11.7 3.8-2 7-2.8 9.5-3 2.4-.2 8.7-3.8 12.9-7.9 4.2-4 6.8-8.5 6.8-12.7 0-4.2-8.5-14.7-16.3-14.7-7.8.1-15.2 2-19.3 3.1zM302.1 37.7S294.4 51 291 61.1c-3.4 10.1-10.9 26.4-13.7 35.2-2.8 8.9-10.3 32.4-11.3 43.5-1 11.1-1.2 16.5-1.2 19.7 0 3.2 0 5.8 1.6 6.4 1.6.6 5 .4 9.1-.2 4-.6 10.1-1.8 12.1-2.8 2-1 6.8-2.4 7.9-14.9 1-12.5 2.4-22.8 3.6-27.6 1.2-4.8 3.6-15.9 5-20.1 1.4-4.2 4.2-10.5 5.6-17.9 1.4-7.4 2.6-12.7 4-15.3 1.4-2.6 1.4-4.8 3.4-4.6 2 .2 4.4 6.6 5 10.1.6 3.4 8.9 24 11.7 30.4 2.8 6.4 5.8 11.7 8.3 15.1 2.4 3.4 2 6.6 5 7 3 .4 5.2-10.1 6.2-14.1s8.9-25.8 13.7-38.9c4.8-13.1 6.4-16.3 7.7-19.1 1.2-2.8 1.2-5.6 3.6-5.6 2.4 0 2.8 11.9 4 18.7 1.2 6.8 5.2 21.9 5.6 28.2.4 6.2 2 14.7 3.6 21.9 1.6 7.2 2.6 12.3 2.8 16.5.2 4.2 1.2 11.9 1.8 13.5.6 1.6 3.6 7.4 3.6 10.5s4.2 11.7 5.6 16.9c1.4 5.2 1.6 6.8 4.8 6.8 3.2 0 2-14.9 2-18.3 0-3.4-.8-30.2-.6-37 .2-6.8.2-24.2.2-27.2s.8-20.3.8-23.2c0-2.8-1.4-13.3-1.4-14.1 0-.8 2.8-12.9 2.8-15.3s-3.4-18.9-5.8-21.1C406 22 399.2 19 396.8 19c-2.4 0-5.6-3-8.5-1.2-2.8 1.8-10.1 9.7-14.7 20.1-4.6 10.5-11.1 25.6-12.9 30.4-1.8 4.8-4.6 9.5-5.8 12.1-1.2 2.6-1.6 3.2-4.2 3.2s-5.2-6.2-5.2-9.3c0-3-3.8-15.9-4.4-18.7-.6-2.8-6.6-17.1-10.3-20.5-3.6-3.4-4.8-6.4-7.9-7.9-3-1.4-6.8-3.6-10.9-1.4-4 2.3-8.2 8.1-9.9 11.9zM448.5 5.7s-5 8.3-5.6 11.5c-.6 3.2-.6 5.2-1.4 9.3-.8 4 0 5.8 0 6.8s.4 5 3.6 5.2c3.2.2 6.8-.6 8.3-.6s11.1-2.2 14.3-2.2c3.2 0 17.7-.4 20.1.8.4 8.5 2.2 24 2.2 28.6 0 4.6 1.4 34.2 1.4 44.7s.4 30 1 36 .4 14.1-.2 19.9c-.6 5.8-1 13.7-.4 17.7s-.8 7.5 1.6 7.5c2.4 0 4-11.1 5.6-13.9 1.6-2.8 2.6-11.1 3.8-17.7 1.2-6.6 2.4-15.9 3.6-20.1 1.2-4.2 4-26.6 5-29.6s4.8-25 5-33c.2-8.1.4-16.3-.4-24.8s-4-10.3-5-12.5c-1-2.2-6.8-8.1.8-9.3s31.8-4.8 34.8-4.8c3 0 17.5-1.8 24.4-2 6.8-.2 14.3-1.6 16.3-1.6s4.2-4-2.8-5.8c-7-1.8-33-4.4-44.1-4.8-11.1-.4-35.4-3-49.3-5-13.8-2.1-39.6-7.1-42.6-.3zM598.3 71.3s-9.1 4.8-15.5 8.5c-6.4 3.6-24 24.6-26.6 34.2-2.6 9.7-2.8 25.6 2.4 35.4 5.2 9.9 19.7 26.4 31.4 29.4s16.9 5.4 23.8 3.4c6.8-2 14.9-6.8 17.9-7.7 3-.8 7-5 11.3-5.4 4.2-.4 8.7-5.6 11.7-7.4 3-1.8 4-3.8 4-3.8s1.4-4.2-6 0-12.5 5.6-16.3 6.2c-3.8.6-8.9 1.8-14.5 2.4-5.6.6-17.9.6-23.8-2.6-5.8-3.2-17.9-14.9-16.9-26.4 1-11.5 5.2-17.7 9.1-22.3 3.8-4.6 10.3-14.5 13.1-17.5 2.8-3 8.1-6.4 11.5-8.5 3.4-2 10.5-4.6 13.5-4.6s12.9-.4 12.9 6.6-1 12.3-3.6 15.1c-2.6 2.8-6.8 7.9-9.5 9.3-2.6 1.4-5.6 3.8-10.7 3.8-5 0-9.9 2.2-11.7 3.2-1.8 1-5.2 1.4-5.2 5.2s6 6.8 11.1 6.4c5-.4 11.1-1.2 13.7-1.4 2.6-.2 10.9-1.8 13.5-3.2 2.6-1.4 8.5-5.6 10.9-6 2.4-.4 10.7-8.5 12.3-10.7 1.6-2.2 3.6-7.2 2.2-13.5-1.4-6.2-6-22.8-17.5-27.6-11.5-4.8-9.9-6.4-16.9-6.4-7.2.1-21.1-.3-31.6 5.9zM711.3 22.2s-13.7 2.2-14.3 11.5c-.6 9.3-1.6 20.5-1.8 28.2-.2 7.7.4 17.7.4 22.5 0 4.8-1.4 18.9-1.6 27.4-.2 8.5 2.4 32.6 2 40.7-.4 8.1-1.8 18.7-1.8 28.8 0 10.1.6 22.8.6 27.2 0 4.4 1 7.5 1 12.7s-.6 11.1.8 12.5c1.4 1.4 1.6.8 2.2-3.6.6-4.4 5-14.1 5.4-16.5.4-2.4 3.4-12.1 3.8-17.9.4-5.8 2.6-15.3 2.6-17.1 0-1.8 2-13.5 2.2-16.7.2-3.2 2.4-9.9 2.4-11.1 0-1.2 1.6-6.6 5.8-4.8 4.2 1.8 10.7 5.2 12.1 6 1.4.8 9.7 9.9 14.1 12.3s13.3 5.4 18.3 10.3c5 4.8 12.9 9.5 16.7 11.7 3.8 2.2 26.6 16.7 29 18.7 2.4 2 8.7 7.2 12.5 9.9 3.8 2.6 7.4 5.2 9.1 5.2 1.6 0 4.4.8-.8-5s-13.3-16.7-17.3-21.3c-4-4.6-23.8-25.8-30.4-32-6.6-6.2-17.7-17.1-24.2-22.1-6.4-5-15.1-14.3-17.5-15.3-2.4-1-5.4-4-1.8-7 3.6-3 11.5-10.1 16.3-14.5 4.8-4.4 9.9-10.7 13.1-12.9 3.2-2.2 8.1-6.6 11.3-9.7 3.2-3 7.4-6.4 9.3-7.2 1.8-.8 9.5-7.7 12.7-10.5 3.2-2.8 8.3-7.4 10.3-9.3 2-1.8 6.6-9.7 4.6-11.1-2-1.4-12.9 2.2-17.9 6.4-5 4.2-17.3 11.3-22.1 15.7-4.8 4.4-13.7 9.1-18.1 13.7-4.4 4.6-7.9 7.2-13.5 10.5-5.6 3.2-10.7 7.9-13.3 8.5-2.6.6-9.5 4.2-7.9-3.8 1.6-8.1 1.6-17.9 1.6-21.3 0-3.4.2-12.1.2-15.3s.8-11.1.6-15.9c-.2-5.2-1.2-19.1-16.7-18.5z"
     id="path847"
     style="fill:#1a1a1a" />
</svg>
