<?xml version="1.0" encoding="UTF-8" standalone="no"?>
<svg
   xmlns:dc="http://purl.org/dc/elements/1.1/"
   xmlns:cc="http://creativecommons.org/ns#"
   xmlns:rdf="http://www.w3.org/1999/02/22-rdf-syntax-ns#"
   xmlns:svg="http://www.w3.org/2000/svg"
   xmlns="http://www.w3.org/2000/svg"
   xmlns:sodipodi="http://sodipodi.sourceforge.net/DTD/sodipodi-0.dtd"
   xmlns:inkscape="http://www.inkscape.org/namespaces/inkscape"
   version="1.1"
   id="svg833"
   width="270"
   height="270.00006"
   viewBox="0 0 270 270.00006"
   sodipodi:docname="pattern.svg"
   inkscape:version="1.0.1 (3bc2e813f5, 2020-09-07)">
  <metadata
     id="metadata839">
    <rdf:RDF>
      <cc:Work
         rdf:about="">
        <dc:format>image/svg+xml</dc:format>
        <dc:type
           rdf:resource="http://purl.org/dc/dcmitype/StillImage" />
        <dc:title></dc:title>
      </cc:Work>
    </rdf:RDF>
  </metadata>
  <defs
     id="defs837" />
  <sodipodi:namedview
     pagecolor="#ffffff"
     bordercolor="#666666"
     borderopacity="1"
     objecttolerance="10"
     gridtolerance="10"
     guidetolerance="10"
     inkscape:pageopacity="0"
     inkscape:pageshadow="2"
     inkscape:window-width="1920"
     inkscape:window-height="1001"
     id="namedview835"
     showgrid="false"
     inkscape:zoom="2.6555556"
     inkscape:cx="84.753759"
     inkscape:cy="132.57756"
     inkscape:window-x="-9"
     inkscape:window-y="-9"
     inkscape:window-maximized="1"
     inkscape:current-layer="g841" />
  <g
     inkscape:groupmode="layer"
     inkscape:label="Image"
     id="g841"
     transform="translate(-1.3250267,-2.2398255)">
    <path
       style="fill:#27270d;fill-opacity:0.03"
       d="m 42.325027,268.39482 c 0,-4.23098 -2.31868,-7.15499 -5.67375,-7.15499 -5.53193,0 -6.95931,-8.30104 -1.65624,-9.63202 3.3692,-0.84562 5.74696,0.64573 6.13329,3.84685 0.16681,1.38221 1.62931,3.78351 3.25,5.33623 2.3704,2.27099 2.9467,3.66662 2.9467,7.13603 0,3.93377 -0.21977,4.31291 -2.5,4.31291 -2.23321,0 -2.5,-0.41033 -2.5,-3.84501 z m -4.17668,-12.48786 c 0.21801,-1.12408 -0.35203,-1.66713 -1.75,-1.66713 -1.14032,0 -2.07332,0.6 -2.07332,1.33333 0,3.06275 3.23923,3.34555 3.82332,0.3338 z m 20.17668,6.00718 c 0,-9.50035 -0.185,-10.49948 -2.31445,-12.5 -2.04861,-1.92457 -3.43098,-2.17431 -12.03518,-2.17431 -7.25229,0 -10.34479,0.4089 -12.17827,1.61024 -3.0253,1.98225 -7.09301,1.15953 -7.97284,-1.61256 -1.65056,-5.20046 3.29052,-8.67589 7.97284,-5.60792 1.89424,1.24116 5.05655,1.61024 13.79655,1.61024 h 11.33902 l 3.19616,3.29761 3.19617,3.2976 v 11.2024 11.20239 h -2.5 -2.5 z m -28,-16.67431 c 0,-1.33333 -0.66667,-2 -2,-2 -1.33333,0 -2,0.66667 -2,2 0,1.33333 0.66667,2 2,2 1.33333,0 2,-0.66667 2,-2 z m 39,12.70295 v -14.29705 l -4,-3.9059 c -3.38825,-3.30853 -4,-4.53642 -4,-8.02863 0,-3.09959 -0.61761,-4.70295 -2.4886,-6.46066 -2.45668,-2.30793 -2.53136,-2.3149 -5.82098,-0.54332 -2.69367,1.45063 -3.75002,1.57108 -5.5114,0.62842 -2.42693,-1.29886 -2.99495,-5.87988 -0.97902,-7.89581 1.4556,-1.45559 5.44571,-1.58227 6.3,-0.2 0.33992,0.55 1.8532,1 3.36285,1 4.2483,0 9.13715,5.58803 9.13715,10.4439 0,3.18202 0.77949,4.68202 4.5,8.65955 l 4.5,4.81087 v 15.04284 15.04284 h -2.5 -2.5 z M 51.878877,222.1527 c 0.94095,-1.52249 -1.10241,-3.30008 -2.96977,-2.58351 -0.89841,0.34476 -1.3022,1.24162 -0.96023,2.13279 0.68249,1.77855 2.94872,2.03846 3.93,0.45072 z m 28.44615,34.29008 v -15.79705 l -3.95949,-3.86634 c -3.77895,-3.69005 -3.97273,-4.18554 -4.25,-10.86708 l -0.29051,-7.00074 -3.5,-1.1688 c -2.70259,-0.90252 -3.57342,-1.79023 -3.82226,-3.89634 -0.39351,-3.33067 1.32958,-5.6066 4.2447,-5.6066 2.59916,0 4.57756,1.7623 4.57756,4.07756 0,0.92265 0.675,2.23775 1.5,2.92244 1.07828,0.89489 1.5,3.26202 1.5,8.4195 0,7.05272 0.0679,7.24096 4,11.0805 l 4,3.9059 v 16.79705 c 0,16.13038 -0.07938,16.79705 -2,16.79705 -1.915596,0 -2,-0.66667 -2,-15.79705 z m -9.68513,-42.58109 c 0.29086,-0.75798 0.0347,-1.87228 -0.56922,-2.47621 -1.44195,-1.44195 -3.83893,0.44768 -3.07922,2.42746 0.69813,1.81931 2.95743,1.84949 3.64844,0.0487 z m 25.68513,42.60132 v -15.77682 l -7,-6.94636 -7,-6.94636 v -6.56441 c 0,-6.51454 -0.03635,-6.60022 -4.784349,-11.27682 l -4.784351,-4.71241 H 37.040677 1.3250267 v -2.5 -2.5 h 36.7788903 36.77889 l 6.221108,6.27691 6.221112,6.2769 v 6.99991 6.99992 l 7,6.94636 7.000003,6.94636 v 16.27682 16.27682 h -2.500003 -2.5 z m 13.000003,-4.04887 v -19.82568 l -2.5,-2.34863 -2.5,-2.34863 v -26.20324 c 0,-22.07182 -0.2365,-26.39952 -1.5,-27.44813 -2.20045,-1.82621 -2.20045,-29.17379 0,-31 0.93912,-0.7794 1.5,-2.98062 1.5,-5.88687 0,-4.61501 -0.0742,-4.71601 -12.763907,-17.37756 -13.282896,-13.25341 -14.578516,-13.99573 -19.747206,-11.31419 -3.67816,1.90826 -6.89393,0.65922 -7.31115,-2.83972 -0.17724,-1.48643 0.21536,-3.35039 0.87245,-4.14214 1.36696,-1.64709 5.52823,-1.930663 6.44981,-0.43952 0.33992,0.55 2.2846,1 4.32152,1 3.438509,0 4.757931,1.0562 18.440983,14.76211 l 14.7375,14.7621 v 5.61545 c 0,3.77156 -0.49254,6.02422 -1.5,6.86034 -1.19528,0.99199 -1.5,3.93763 -1.5,14.5 0,10.56237 0.30472,13.50801 1.5,14.5 1.26214,1.04748 1.5,5.32076 1.5,26.94813 v 25.70324 l 2.5,2.34863 2.5,2.34863 v 20.82568 20.82569 h -2.5 -2.5 z M 70.639897,105.86169 c 0.29086,-0.75798 0.0347,-1.87228 -0.56922,-2.47621 -1.44195,-1.44195 -3.83893,0.44768 -3.07922,2.42746 0.69813,1.81931 2.95742,1.84949 3.64844,0.0487 z m 76.685133,163.03313 c 0,-1.9706 0.7514,-4.02502 1.82874,-5 2.11949,-1.91811 9.1945,-2.23175 10.94123,-0.48502 0.89329,0.89329 2.14388,0.84855 5.28829,-0.1892 5.01522,-1.65517 7.44174,-0.5119 7.44174,3.50624 0,4.07551 -3.17567,5.9127 -6.88971,3.98583 -1.5614,-0.81006 -3.63237,-1.47284 -4.60215,-1.47284 -0.96979,0 -2.34147,-0.69672 -3.04819,-1.54826 -2.04058,-2.45874 -5.40714,-1.41069 -5.77637,1.79826 -0.24853,2.15997 -0.83857,2.75 -2.75,2.75 -2.09309,0 -2.43358,-0.46801 -2.43358,-3.34501 z m 22.88989,-1.02231 c 0.85828,-1.03417 0.79862,-1.64631 -0.24488,-2.51233 -1.05407,-0.87481 -1.66726,-0.79846 -2.59842,0.32351 -1.20865,1.45633 -0.68314,3.55614 0.88998,3.55614 0.4502,0 1.32919,-0.61529 1.95332,-1.36732 z m 7.11011,-2.93651 c 0,-6.94903 0.16019,-7.4591 3.29761,-10.5 1.81368,-1.75789 4.17618,-3.21048 5.25,-3.22797 1.07381,-0.0175 2.8259,-0.6925 3.89352,-1.5 2.84558,-2.15229 5.29622,-1.79869 7.15083,1.0318 1.51741,2.31587 1.51741,2.68413 0,5 -1.8826,2.8732 -5.12063,3.23653 -7.7376,0.8682 -1.6679,-1.50943 -1.9925,-1.50771 -4.32874,0.0231 -2.30137,1.50792 -2.52562,2.27433 -2.52562,8.6318 0,6.77541 -0.0722,6.97695 -2.5,6.97695 -2.43848,0 -2.5,-0.17974 -2.5,-7.30383 z m 17.5,-11.69617 c 0,-0.80994 -0.7875,-1.62427 -1.75,-1.80963 -1.22785,-0.23646 -1.75,0.30348 -1.75,1.80963 0,1.50615 0.52215,2.04609 1.75,1.80963 0.9625,-0.18536 1.75,-0.99969 1.75,-1.80963 z m -1.5,15.65499 c 0,-3.23203 2.42066,-6.65499 4.7063,-6.65499 0.57683,0 1.60901,-0.675 2.2937,-1.5 1.49539,-1.80183 5.13749,-1.96251 6.8,-0.3 0.66,0.66 1.2,2.46965 1.2,4.02144 0,3.53347 -3.61102,5.59229 -6.80777,3.88144 -2.89884,-1.55141 -3.19223,-1.42301 -3.19223,1.39712 0,2 -0.5,2.5 -2.5,2.5 -2.16841,0 -2.5,-0.44367 -2.5,-3.34501 z m 12.75029,-4.40446 c 0.54676,-1.64213 -2.58648,-2.81434 -3.93038,-1.47044 -0.5751,0.5751 -0.7279,1.55977 -0.33954,2.18815 0.88355,1.42961 3.71332,0.95397 4.26992,-0.71771 z m 6.24971,1.95242 c 0,-5.44558 0.24252,-6.03387 4,-9.70295 3.29133,-3.2139 4,-4.58484 4,-7.73813 0,-2.10773 -0.72675,-4.9414 -1.61501,-6.29705 -1.4883,-2.27143 -1.48649,-2.66097 0.0231,-4.96482 1.75527,-2.67888 5.37625,-3.3157 7.39196,-1.3 1.45558,1.45559 1.58227,5.44571 0.19999,6.3 -0.55,0.33992 -1,2.97515 -1,5.85607 0,4.79339 -0.33955,5.5696 -4,9.14393 -3.67165,3.58528 -3.99999,4.3407 -3.99999,9.20295 0,4.98352 -0.14797,5.29705 -2.5,5.29705 -2.37916,0 -2.5,-0.2802 -2.5,-5.79705 z m 11.88988,-25.57027 c 0.85828,-1.03417 0.79862,-1.64631 -0.24488,-2.51233 -1.05407,-0.87481 -1.66726,-0.79846 -2.59842,0.32351 -1.20864,1.45633 -0.68313,3.55614 0.88998,3.55614 0.4502,0 1.3292,-0.61529 1.95332,-1.36732 z m -0.88988,28.08843 c 0,-2.70815 1.13143,-4.40025 6.5,-9.72111 l 6.5,-6.44222 v -8.24184 -8.24185 l 8,-6.69656 8,-6.69657 v -12.64048 c 0,-7.75143 -0.41953,-13.06 -1.08467,-13.72514 -1.47452,-1.47453 -0.7766,-5.38476 1.17988,-6.61047 2.29024,-1.43479 6.65941,-0.0533 7.42107,2.34642 0.3802,1.19791 -0.007,3.04847 -0.93336,4.46249 -1.23291,1.88166 -1.58642,5.2429 -1.59873,15.20104 l -0.0158,12.78518 -7.92419,6.5 -7.92419,6.5 -0.06,7.92429 -0.06,7.92429 -7,7.21913 c -4.16675,4.29719 -7,8.07177 -7,9.32571 0,1.43991 -0.63294,2.10658 -2,2.10658 -1.59336,0 -2,-0.66667 -2,-3.27889 z m 33.82331,-75.05398 c 0.21801,-1.12408 -0.35203,-1.66713 -1.75,-1.66713 -1.14031,0 -2.07331,0.6 -2.07331,1.33333 0,3.06275 3.23923,3.34555 3.82331,0.3338 z m -17.82331,76.53582 c 0,-0.98838 1.79999,-3.55471 4,-5.70295 l 4,-3.9059 v -9.50489 -9.50488 l 3.69779,-3.78689 c 2.03378,-2.08278 4.17129,-5.25175 4.75,-7.04216 0.818,-2.53074 1.69139,-3.32832 3.92402,-3.58346 1.5795,-0.1805 3.357,0.157 3.95001,0.75 0.593,0.593 2.56318,1.07818 4.37817,1.07818 2.85333,0 3.30001,0.33838 3.30001,2.5 0,2.18231 -0.43728,2.5 -3.44099,2.5 -1.89254,0 -3.71909,0.45 -4.05901,1 -0.33992,0.55 -1.47582,1 -2.52423,1 -1.0484,0 -3.49684,1.39662 -5.44098,3.10359 l -3.53479,3.10359 v 9.69346 9.69346 l -4,3.9059 c -2.20001,2.14824 -4,4.48957 -4,5.20295 0,0.71685 -1.11831,1.29705 -2.5,1.29705 -1.73923,0 -2.5,-0.54686 -2.5,-1.79705 z m 22.66416,-37.77017 c 0.83346,-2.17196 -1.28243,-4.21451 -2.79695,-2.7 -1.28004,1.28004 -0.48704,4.26722 1.13279,4.26722 0.58452,0 1.33339,-0.70525 1.66416,-1.56722 z m -6.66416,36.18966 c 0,-1.85765 0.67499,-3.93775 1.5,-4.62244 2.02921,-1.6841 1.97596,-10.34395 -0.0829,-13.48622 -0.92651,-1.41402 -1.31356,-3.26458 -0.93336,-4.46249 0.76165,-2.39974 5.13083,-3.78121 7.42107,-2.34642 1.95648,1.22571 2.6544,5.13594 1.17987,6.61047 -0.59659,0.59656 -1.08468,4.08956 -1.08468,7.76222 0,4.71565 -0.44072,7.04331 -1.5,7.92244 -0.82501,0.68469 -1.5,2.31479 -1.5,3.62244 0,1.8694 -0.53434,2.37756 -2.5,2.37756 -2.17322,0 -2.5,-0.4415 -2.5,-3.37756 z m 6.82331,-20.95531 c 0.21801,-1.12408 -0.35203,-1.66713 -1.75,-1.66713 -1.14031,0 -2.07331,0.6 -2.07331,1.33333 0,3.06275 3.23923,3.34555 3.82331,0.3338 z M 19.766157,267.77163 c -1.06762,-0.8075 -3.55889,-1.4825 -5.53614,-1.5 -5.3361303,-0.0472 -6.9049903,-2.37337 -6.9049903,-10.2381 0,-4.60121 -0.44609,-6.91904 -1.5,-7.7937 -3.53437,-2.93326 0.26616,-8.77747 4.9444803,-7.60329 3.28579,0.82468 4.3403,4.75661 2.16576,8.07539 -1.88532,2.87736 -2.14217,10.59597 -0.41024,12.3279 1.66251,1.66251 5.30461,1.50183 6.8,-0.3 1.93147,-2.32728 5.74059,-1.82555 7.59196,1 1.51741,2.31587 1.51741,2.68413 0,5 -1.85461,2.83049 -4.30525,3.18409 -7.15083,1.0318 z m 5.11272,-2.61893 c 0.94095,-1.52249 -1.10241,-3.30008 -2.96977,-2.58351 -0.89841,0.34476 -1.3022,1.24162 -0.96023,2.13279 0.68249,1.77855 2.94872,2.03846 3.93,0.45072 z m -13.55385,-19.91287 c 0,-2.07031 -2.4125103,-2.7596 -3.5000003,-1 -0.83704,1.35436 0.29243,3 2.05902,3 0.7925403,0 1.4409803,-0.9 1.4409803,-2 z m 110.654993,22.17126 c -0.91025,-1.00581 -1.65499,-2.51106 -1.65499,-3.34501 0,-1.79292 3.10905,-4.82625 4.94673,-4.82625 0.70908,0 2.82681,-1.35 4.70605,-3 l 3.41681,-3 h 16.24409 16.2441 l 6.44222,-6.5 6.44222,-6.5 h 8.08272 c 7.83007,0 8.18262,-0.10307 11.27888,-3.29761 1.75789,-1.81368 3.19617,-3.97767 3.19617,-4.80887 0,-0.83119 0.66069,-2.38477 1.4682,-3.45239 0.82759,-1.09418 1.48207,-4.1462 1.5,-6.99496 0.0277,-4.41095 0.44522,-5.42861 3.2818,-8 4.24566,-3.84875 7.18946,-5.44617 10.03643,-5.44617 5.01255,0 6.50217,5.78196 2.21357,8.59196 -2.27697,1.49193 -2.71318,1.49838 -4.88961,0.0723 -2.19513,-1.43831 -2.52067,-1.42091 -4,0.21373 -1.79656,1.98521 -2.24949,10.60899 -0.61039,11.62201 1.38227,0.85429 1.25559,4.84441 -0.2,6.3 -0.66,0.66 -2.02928,1.2 -3.04284,1.2 -1.01356,0 -4.00773,2.025 -6.65371,4.5 l -4.81086,4.5 h -7.92517 -7.92519 l -6.44222,6.5 -6.44222,6.5 h -16.10458 c -15.54095,0 -16.18067,0.081 -18.27889,2.31445 -1.19587,1.27295 -2.17431,3.04081 -2.17431,3.92857 0,2.14246 -2.70216,4.75698 -4.91644,4.75698 -0.97547,0 -2.51833,-0.82293 -3.42857,-1.82874 z m 5.34501,-3.17126 c 0,-2.07031 -2.41251,-2.7596 -3.5,-1 -0.83704,1.35436 0.29243,3 2.05902,3 0.79254,0 1.44098,-0.9 1.44098,-2 z m 80.66416,-31.56722 c 0.83346,-2.17196 -1.28244,-4.21451 -2.79695,-2.7 -1.28004,1.28004 -0.48705,4.26722 1.13278,4.26722 0.58452,0 1.3334,-0.70525 1.66417,-1.56722 z m 11,-19 c 0.83346,-2.17196 -1.28244,-4.21451 -2.79695,-2.7 -1.28004,1.28004 -0.48705,4.26722 1.13278,4.26722 0.58452,0 1.3334,-0.70525 1.66417,-1.56722 z m -64.66416,35.06722 c -0.95704,-1.15316 -3.59333,-1.5 -11.40133,-1.5 h -10.15645 l -6.22111,-6.27691 -6.22111,-6.2769 v -7.49015 -7.49015 l 11,-10.96589 11,-10.96589 v -9.03681 -9.0368 l 9.5,-9.4605 c 9.30409,-9.26541 9.5,-9.55719 9.5,-14.14921 0,-2.63234 -0.76751,-6.03159 -1.75,-7.7506 -1.31577,-2.30213 -1.48529,-3.48428 -0.68317,-4.76421 1.79291,-2.8609 4.22229,-3.95877 6.11634,-2.76403 3.35118,2.11387 3.93856,4.25336 2.06683,7.52824 -1.10276,1.92944 -1.75,5.16588 -1.75,8.7506 v 5.68871 l -9.5,9.4605 -9.5,9.4605 v 9.53762 9.53761 l -10.5,10.46427 -10.5,10.46427 v 6.05545 c 0,5.90685 0.11741,6.17111 4.78435,10.76787 l 4.78435,4.71241 h 9.0932 c 6.8629,0 9.39855,-0.36791 10.3381,-1.5 1.93147,-2.32728 5.74059,-1.82555 7.59196,1 1.51741,2.31587 1.51741,2.68413 0,5 -1.85137,2.82555 -5.66049,3.32728 -7.59196,1 z m 5.55385,-2.58713 c 0.94095,-1.52249 -1.10241,-3.30008 -2.96977,-2.58351 -0.89841,0.34476 -1.3022,1.24162 -0.96023,2.13279 0.68249,1.77855 2.94872,2.03846 3.93,0.45072 z m 5.25578,-100.66287 c -0.18536,-0.9625 -0.99969,-1.75 -1.80963,-1.75 -0.80994,0 -1.62427,0.7875 -1.80963,1.75 -0.23646,1.22785 0.30348,1.75 1.80963,1.75 1.50615,0 2.04609,-0.52215 1.80963,-1.75 z m -140.309633,89.75 c -0.35375,-0.57238 -5.51038,-1 -12.05902,-1 H 1.3250267 v -2.5 -2.5 H 12.766007 c 6.54864,0 11.70527,-0.42762 12.05902,-1 0.85927,-1.39033 5.8463,-1.2537 7.3,0.2 1.5425,1.5425 1.5425,5.0575 0,6.6 -1.4537,1.4537 -6.44073,1.59033 -7.3,0.2 z m 5.16417,-2.56722 c 0.83346,-2.17196 -1.28244,-4.21451 -2.79695,-2.7 -1.28004,1.28004 -0.48705,4.26722 1.13278,4.26722 0.58452,0 1.3334,-0.70525 1.66417,-1.56722 z m 105.535833,2.36722 c -0.66,-0.66 -1.2,-2.145 -1.2,-3.3 0,-1.155 0.54,-2.64 1.2,-3.3 1.4537,-1.4537 6.44073,-1.59033 7.3,-0.2 0.34781,0.56277 5.15738,1 11,1 5.84262,0 10.65219,-0.43723 11,-1 0.85927,-1.39033 5.8463,-1.2537 7.3,0.2 1.5425,1.5425 1.5425,5.0575 0,6.6 -1.4537,1.4537 -6.44073,1.59033 -7.3,0.2 -0.34781,-0.56277 -5.15738,-1 -11,-1 -5.84262,0 -10.65219,0.43723 -11,1 -0.85927,1.39033 -5.8463,1.2537 -7.3,-0.2 z m 5.46417,-2.36722 c 0.83346,-2.17196 -1.28244,-4.21451 -2.79695,-2.7 -1.28004,1.28004 -0.48705,4.26722 1.13278,4.26722 0.58452,0 1.3334,-0.70525 1.66417,-1.56722 z m 29.27505,-2.00602 c -1.27473,-1.53595 -3.93922,-0.79401 -3.93922,1.0969 0,1.74868 2.1903,2.45274 3.76233,1.20939 0.91896,-0.72682 0.96707,-1.35417 0.17689,-2.30629 z m 12.89749,-4.8858 c -0.8952,-1.96474 -0.79039,-2.96272 0.52144,-4.96481 1.42141,-2.16934 1.64185,-6.17939 1.64185,-29.86665 v -27.36087 l 2.5,-2.34863 c 1.98854,-1.86813 2.5,-3.32382 2.5,-7.1153 0,-2.62166 -0.45,-5.04478 -1,-5.3847 -1.79317,-1.10824 -1.13631,-6.35668 0.93426,-7.46482 3.05351,-1.63419 4.89222,-1.22964 6.6577,1.46482 1.50954,2.30385 1.51135,2.69339 0.0231,4.96482 -0.92718,1.41498 -1.61506,4.53519 -1.61506,7.32568 0,3.89196 -0.49832,5.32902 -2.5,7.2095 l -2.5,2.34863 v 27.76667 c 0,17.43242 0.37218,27.99669 1,28.3847 1.38227,0.85429 1.25559,4.84441 -0.2,6.3 -2.17047,2.17047 -6.7291,1.44972 -7.96329,-1.25904 z m 5.82746,-2.97374 c -0.33077,-0.86197 -1.07965,-1.56722 -1.66417,-1.56722 -1.7193,0 -2.41535,3.12526 -0.90408,4.05928 1.77453,1.09672 3.35638,-0.43822 2.56825,-2.49206 z m 5.83583,-77.56722 c 0,-0.80994 -0.7875,-1.62427 -1.75,-1.80963 -1.22785,-0.23646 -1.75,0.30348 -1.75,1.80963 0,1.50615 0.52215,2.04609 1.75,1.80963 0.9625,-0.18536 1.75,-0.99969 1.75,-1.80963 z m 32.7,81.8 c -1.4537,-1.4537 -1.59033,-6.44073 -0.2,-7.3 0.55,-0.33992 1,-2.5282 1,-4.86285 0,-3.48877 -0.58734,-4.81409 -3.29761,-7.44098 -1.81368,-1.75789 -4.19868,-3.19617 -5.3,-3.19617 -4.88056,0 -6.30149,-7.17759 -1.82473,-9.21734 3.29941,-1.50331 5.55761,-0.18601 6.97455,4.06852 0.57871,1.73766 2.71621,4.86348 4.75,6.94626 3.19038,3.26725 3.69779,4.4248 3.69779,8.43571 0,2.55685 0.45,4.92693 1,5.26685 1.39033,0.85927 1.2537,5.8463 -0.2,7.3 -0.66,0.66 -2.145,1.2 -3.3,1.2 -1.155,0 -2.64,-0.54 -3.3,-1.2 z m 5.13357,-4.37311 c -0.30115,-0.78479 -1.12626,-1.42689 -1.83357,-1.42689 -1.77079,0 -2.58393,2.51607 -1.24565,3.85435 1.44195,1.44195 3.83893,-0.44768 3.07922,-2.42746 z m -10.83358,-23.42689 c 0,-0.80994 -0.7875,-1.62427 -1.75,-1.80963 -1.22785,-0.23646 -1.75,0.30348 -1.75,1.80963 0,1.50615 0.52216,2.04609 1.75,1.80963 0.9625,-0.18536 1.75,-0.99969 1.75,-1.80963 z M 6.2059567,224.3445 c -2.01203,-1.62925 -2.20049,-2.2961 -1.34238,-4.75 0.7322,-2.09382 1.75877,-2.94214 3.85168,-3.18285 1.5693803,-0.1805 3.3385903,0.157 3.9315903,0.75 1.36651,1.36651 19.33891,1.43614 20.17818,0.0782 0.85927,-1.39033 5.8463,-1.2537 7.3,0.2 2.01569,2.0157 1.37888,5.63669 -1.3,7.39196 -2.30385,1.50954 -2.69339,1.51135 -4.96482,0.0231 -3.31709,-2.17344 -19.1336,-2.23332 -21.97631,-0.0832 -2.4866003,1.88077 -2.8627403,1.85248 -5.6779403,-0.42713 z m 4.9423903,-3.43754 c 0.21801,-1.12408 -0.35203,-1.66713 -1.7500003,-1.66713 -1.14032,0 -2.07332,0.6 -2.07332,1.33333 0,3.06275 3.2392303,3.34555 3.8233203,0.3338 z m 27,0 c 0.21801,-1.12408 -0.35203,-1.66713 -1.75,-1.66713 -1.14032,0 -2.07332,0.6 -2.07332,1.33333 0,3.06275 3.23922,3.34555 3.82332,0.3338 z m 54.37668,1.13287 c -1.453703,-1.4537 -1.590334,-6.44073 -0.2,-7.3 0.602201,-0.37218 1,-7.27431 1,-17.35081 v -16.73277 l -4.287852,-4.20821 -4.287851,-4.20821 h -8.653137 c -4.75922,0 -8.93124,0.45 -9.27116,1 -1.10824,1.79317 -6.35668,1.13631 -7.46482,-0.93426 -1.63419,-3.05351 -1.22964,-4.89222 1.46482,-6.6577 2.30385,-1.50954 2.69339,-1.51135 4.96482,-0.0231 1.798,1.17815 4.84931,1.61506 11.27888,1.61506 h 8.814077 l 6.221111,6.27691 6.221112,6.2769 v 17.16408 c 0,10.36403 0.396179,17.40893 1,17.78211 1.390333,0.85927 1.253703,5.8463 -0.2,7.3 -0.66,0.66 -2.145,1.2 -3.3,1.2 -1.155,0 -2.64,-0.54 -3.3,-1.2 z m 5.550292,-3.54947 c 0.546761,-1.64213 -2.586478,-2.81434 -3.930377,-1.47044 -0.575108,0.5751 -0.727903,1.55977 -0.339546,2.18815 0.883552,1.42961 3.713319,0.95397 4.269923,-0.71771 z M 64.989197,168.80705 c -0.33077,-0.86197 -1.07965,-1.56722 -1.66417,-1.56722 -1.7193,0 -2.41535,3.12526 -0.90408,4.05928 1.77453,1.09672 3.35638,-0.43822 2.56825,-2.49206 z m 84.335833,47.43278 c -2.26853,-2.26853 -2.43543,-3.31787 -0.96482,-6.06574 1.17324,-2.19222 5.86335,-2.63573 7.76482,-0.73426 1.9093,1.9093 1.3954,5.54973 -1.02251,7.2433 -2.86015,2.00333 -3.36998,1.96421 -5.77749,-0.4433 z m 4.66417,-2.56722 c 0.78813,-2.05384 -0.79372,-3.58878 -2.56825,-2.49206 -1.51127,0.93402 -0.81522,4.05928 0.90408,4.05928 0.58452,0 1.3334,-0.70525 1.66417,-1.56722 z m 12.72493,3.55578 c -2.98341,-1.16063 -3.62421,-3.63323 -1.83718,-7.08897 1.04961,-2.02972 1.44417,-5.10265 1.24293,-9.68016 -0.28908,-6.57531 -0.35308,-6.71647 -3.27288,-7.21896 -2.14203,-0.36863 -3.25927,-1.31219 -3.97986,-3.36115 -0.86151,-2.4497 -0.67401,-3.1141 1.33882,-4.74399 1.28735,-1.04243 3.09709,-1.89533 4.02165,-1.89533 0.92455,0 3.5747,-1.92953 5.88921,-4.28785 l 4.20821,-4.28785 V 162.011 c 0,-7.35674 -0.41858,-12.91184 -1,-13.27117 -0.55,-0.33992 -1,-1.95112 -1,-3.58046 0,-3.71109 3.54599,-5.76807 6.87351,-3.98724 2.2481,1.20315 3.02119,6.39671 1.12649,7.5677 -0.5851,0.36161 -1,6.1051 -1,13.84318 v 13.22514 l -5.5,5.43168 c -5.65226,5.58205 -6.78265,8.69061 -4,11 1.09499,0.90876 1.5,3.3179 1.5,8.92244 0,4.22266 0.4881,8.16566 1.08466,8.76222 3.00173,3.00173 -1.59656,8.89851 -5.69556,7.3039 z m 3.50079,-3.35588 c 0.85828,-1.03417 0.79862,-1.64631 -0.24488,-2.51233 -1.05407,-0.87481 -1.66726,-0.79846 -2.59842,0.32351 -1.20865,1.45633 -0.68314,3.55614 0.88998,3.55614 0.4502,0 1.32919,-0.61529 1.95332,-1.36732 z m -5.08026,-25.38268 c -0.18536,-0.9625 -0.99969,-1.75 -1.80963,-1.75 -0.80994,0 -1.62427,0.7875 -1.80963,1.75 -0.23646,1.22785 0.30348,1.75 1.80963,1.75 1.50615,0 2.04609,-0.52215 1.80963,-1.75 z m 13.94066,-42.99947 c 0.54676,-1.64213 -2.58648,-2.81434 -3.93038,-1.47044 -0.5751,0.5751 -0.7279,1.55977 -0.33954,2.18815 0.88355,1.42961 3.71332,0.95397 4.26992,-0.71771 z m 62.47221,71.19277 c -4.13332,-2.89509 -2.30819,-8.4433 2.77749,-8.4433 3.19355,0 5,1.67757 5,4.6433 0,1.90719 -3.2198,5.3567 -5,5.3567 -0.30524,0 -1.55512,-0.70052 -2.77749,-1.5567 z m 4.60081,-3.77617 c 0.21801,-1.12408 -0.35203,-1.66713 -1.75,-1.66713 -1.14032,0 -2.07332,0.6 -2.07332,1.33333 0,3.06275 3.23923,3.34555 3.82332,0.3338 z m 16.92668,-6.74723 c -2.01024,-1.17086 -2.34868,-5.92122 -0.55,-7.7199 2.7386,-2.7386 8.8,-0.25649 8.8,3.60354 0,2.02251 -3.39515,5.22753 -5.47251,5.16605 -0.56512,-0.0167 -1.81499,-0.48908 -2.77749,-1.04969 z m 4.80385,-3.00703 c 0.94095,-1.52249 -1.10241,-3.30008 -2.96977,-2.58351 -0.89841,0.34476 -1.3022,1.24162 -0.96023,2.13279 0.68249,1.77855 2.94872,2.03846 3.93,0.45072 z M 116.3298,202.74558 c -0.77257,-0.93089 -0.97123,-2.53323 -0.52693,-4.25 1.52106,-5.8773 1.71663,-12.52387 0.43876,-14.91158 -1.02052,-1.90686 -1.04254,-3.10698 -0.10462,-5.70075 1.44591,-3.99861 1.56456,-12.29267 0.18802,-13.14342 -1.66492,-1.02898 -1.1228,-5.07889 0.92834,-6.93515 4.23231,-3.83019 9.91393,1.97455 6.71351,6.859 -2.12918,3.24954 -2.10143,9.94512 0.0549,13.23602 1.59562,2.43522 1.59562,2.76566 0,5.54586 -2.12495,3.70252 -2.23868,11.09958 -0.19671,12.79427 2.02701,1.68227 1.88943,4.33759 -0.32874,6.34501 -2.27482,2.05868 -5.53073,2.13171 -7.16649,0.16074 z m 5.49523,-3.50575 c 0,-0.80994 -0.7875,-1.62427 -1.75,-1.80963 -1.22785,-0.23646 -1.75,0.30348 -1.75,1.80963 0,1.50615 0.52215,2.04609 1.75,1.80963 0.9625,-0.18536 1.75,-0.99969 1.75,-1.80963 z m 0.31184,-18.73852 c -0.50201,-2.60673 -3.81184,-2.89745 -3.81184,-0.3348 0,1.43109 0.64223,2.07332 2.07332,2.07332 1.4311,0 1.96962,-0.53852 1.73852,-1.73852 z m -0.002,-19.01148 c -0.18536,-0.9625 -0.99969,-1.75 -1.80963,-1.75 -0.80994,0 -1.62427,0.7875 -1.80963,1.75 -0.23646,1.22785 0.30348,1.75 1.80963,1.75 1.50615,0 2.04609,-0.52215 1.80963,-1.75 z m 78.39015,41.55 c -1.4537,-1.4537 -1.59033,-6.44073 -0.2,-7.3 0.55,-0.33992 1,-2.36492 1,-4.5 0,-2.13508 -0.45,-4.16008 -1,-4.5 -1.39033,-0.85927 -1.2537,-5.8463 0.2,-7.3 1.66251,-1.66251 5.30461,-1.50183 6.8,0.3 0.68469,0.825 2.70969,1.5 4.5,1.5 1.79031,0 3.81531,-0.675 4.5,-1.5 1.93147,-2.32728 5.74059,-1.82555 7.59196,1 1.51741,2.31587 1.51741,2.68413 0,5 -1.85461,2.83049 -4.30525,3.18409 -7.15083,1.0318 -2.36172,-1.78631 -7.59859,-1.97434 -9.24113,-0.3318 -1.45087,1.45087 -1.60105,8.4341 -0.2,9.3 1.39033,0.85927 1.2537,5.8463 -0.2,7.3 -0.66,0.66 -2.145,1.2 -3.3,1.2 -1.155,0 -2.64,-0.54 -3.3,-1.2 z m 5.55029,-3.54947 c 0.54676,-1.64213 -2.58648,-2.81434 -3.93038,-1.47044 -0.5751,0.5751 -0.7279,1.55977 -0.33954,2.18815 0.88355,1.42961 3.71332,0.95397 4.26992,-0.71771 z m 0,-16 c 0.54676,-1.64213 -2.58648,-2.81434 -3.93038,-1.47044 -0.5751,0.5751 -0.7279,1.55977 -0.33954,2.18815 0.88355,1.42961 3.71332,0.95397 4.26992,-0.71771 z m 15.74971,-0.25053 c 0,-0.80994 -0.7875,-1.62427 -1.75,-1.80963 -1.22785,-0.23646 -1.75,0.30348 -1.75,1.80963 0,1.50615 0.52215,2.04609 1.75,1.80963 0.9625,-0.18536 1.75,-0.99969 1.75,-1.80963 z M 5.9800167,194.41109 c -0.91025,-1.00581 -1.65499,-2.51106 -1.65499,-3.34501 0,-1.85412 3.13264,-4.82625 5.08689,-4.82625 0.7861803,0 11.7720803,-10.35 24.4131103,-23 l 22.98369,-23 h 14.29334 c 11.473448,0 14.779613,-0.31862 16.758153,-1.61501 2.271429,-1.4883 2.660965,-1.48649 4.964817,0.0231 2.678883,1.75527 3.315695,5.37626 1.3,7.39196 -1.453703,1.4537 -6.440726,1.59033 -7.3,0.2 -0.363358,-0.58793 -6.263162,-1 -14.31735,-1 h -13.69932 l -22.24166,22.25816 c -12.23292,12.24193 -22.24167,23.00979 -22.24167,23.92852 0,2.19102 -2.67845,4.81327 -4.9164403,4.81327 -0.97547,0 -2.51833,-0.82293 -3.42857,-1.82874 z m 5.3450103,-3.17126 c 0,-2.07031 -2.4125103,-2.7596 -3.5000003,-1 -0.83704,1.35436 0.29243,3 2.05902,3 0.7925403,0 1.4409803,-0.9 1.4409803,-2 z m 80.664167,-49.43278 c -0.330768,-0.86197 -1.079644,-1.56722 -1.664167,-1.56722 -1.7193,0 -2.415353,3.12526 -0.904076,4.05928 1.774522,1.09672 3.356378,-0.43822 2.568243,-2.49206 z m -72.464167,53.23278 c -1.54692,-1.54692 -1.54692,-6.05308 0,-7.6 0.66,-0.66 2.12777,-1.2 3.26172,-1.2 1.3307,0 7.7265,-5.67309 18.03828,-16 l 15.97656,-16 h 13.7969 c 10.999581,0 14.295172,-0.32648 16.254438,-1.61024 4.682327,-3.06797 9.623399,0.40746 7.97284,5.60792 -0.871494,2.74583 -5.099242,3.67564 -7.369773,1.62084 -1.461105,-1.32228 -4.247167,-1.61852 -15.221805,-1.61852 h -13.43336 l -15.2379,15.26173 c -8.38084,8.39395 -15.2379,15.94382 -15.2379,16.77749 0,4.48121 -5.89201,7.66877 -8.8,4.76078 z m 5.3,-3.8 c 0,-0.80994 -0.7875,-1.62427 -1.75,-1.80963 -1.22785,-0.23646 -1.75,0.30348 -1.75,1.80963 0,1.50615 0.52215,2.04609 1.75,1.80963 0.9625,-0.18536 1.75,-0.99969 1.75,-1.80963 z m 67.5,-35 c 0,-1.33333 -0.666667,-2 -2,-2 -1.92719,0 -2.709897,1.95677 -1.333333,3.33333 1.376564,1.37657 3.333333,0.59386 3.333333,-1.33333 z m -59.34501,38.17126 c -0.91025,-1.00581 -1.65499,-2.51106 -1.65499,-3.34501 0,-1.88258 3.14384,-4.82625 5.15443,-4.82625 0.82332,0 2.55382,-1.125 3.84557,-2.5 2.31779,-2.46717 2.56138,-2.5 18.55187,-2.5 13.18293,0 16.43529,-0.2796 17.44813,-1.5 1.580393,-1.90426 5.392081,-1.93742 6.949813,-0.0605 0.657086,0.79174 1.049686,2.69596 0.872445,4.23159 -0.431701,3.74029 -4.875064,5.49605 -7.620718,3.01127 -1.56208,-1.41363 -4.17461,-1.68236 -16.35597,-1.68236 -13.86051,0 -14.5924,0.10161 -16.67126,2.31445 -1.19587,1.27295 -2.17431,3.04081 -2.17431,3.92857 0,2.14246 -2.70216,4.75698 -4.91644,4.75698 -0.97547,0 -2.51833,-0.82293 -3.42857,-1.82874 z m 5.34501,-3.17126 c 0,-1.1 -0.64844,-2 -1.44098,-2 -1.76659,0 -2.89606,1.64564 -2.05902,3 1.08749,1.7596 3.5,1.07031 3.5,-1 z m 43,-8 c 0,-2.07031 -2.41251,-2.7596 -3.5,-1 -0.83704,1.35436 0.292427,3 2.059017,3 0.792541,0 1.440983,-0.9 1.440983,-2 z m 155.222513,6.4433 c -2.27922,-1.59643 -3.02456,-5.82958 -1.22251,-6.9433 0.54999,-0.33992 1,-1.84589 1,-3.34661 0,-1.93458 1.3922,-4.09984 4.78434,-7.44098 l 4.78435,-4.71241 h 12.71565 12.71566 v 2.5 2.5 H 259.5212 247.71735 l -3.33989,3.4459 c -3.22433,3.32666 -3.29221,3.56023 -1.96164,6.75 1.61182,3.86396 1.3907,5.82643 -0.85108,7.5541 -2.06229,1.58933 -2.33396,1.57272 -5.0172,-0.3067 z m 4.30455,-2.4871 c 0.35481,-0.5741 0.0967,-1.70465 -0.57366,-2.51234 -0.93116,-1.12197 -1.54435,-1.19832 -2.59842,-0.32351 -1.04349,0.86602 -1.10316,1.47816 -0.24488,2.51233 1.35601,1.63388 2.53795,1.74579 3.41696,0.32352 z M 11.825027,173.23983 c -0.33992,-0.55 -2.8414803,-1 -5.5590203,-1 -4.60371,0 -4.94098,-0.17065 -4.94098,-2.5 0,-2.23774 0.40762,-2.5 3.88569,-2.5 2.13713,0 5.1185703,-0.63962 6.6254103,-1.42138 3.67817,-1.90826 6.89394,-0.65922 7.31116,2.83972 0.17724,1.48643 -0.21536,3.35039 -0.87245,4.14213 -1.36696,1.6471 -5.52824,1.93067 -6.44981,0.43953 z m 4.83357,-4.57311 c -0.30115,-0.78479 -1.12626,-1.42689 -1.83357,-1.42689 -1.77079,0 -2.58393,2.51607 -1.24565,3.85435 1.44195,1.44195 3.83893,-0.44768 3.07922,-2.42746 z m 190.862603,0.2755 c -2.25772,-2.32937 -3.19618,-4.24821 -3.19618,-6.53518 0,-1.78067 -0.71231,-4.32471 -1.58292,-5.65343 -2.76417,-4.21865 0.93581,-9.48872 5.61838,-8.00253 2.43096,0.77156 3.64727,5.16589 2.11084,7.62611 -1.72069,2.75526 -1.38085,7.34039 0.68245,9.20765 1.33489,1.20806 3.71828,1.65499 8.82569,1.65499 9.46974,0 11.34557,-1.85044 11.34557,-11.19201 0,-4.61392 -0.44549,-6.93282 -1.5,-7.80799 -3.53438,-2.93326 0.26615,-8.77747 4.94448,-7.60329 2.96888,0.74514 4.43943,4.95826 2.7018,7.74065 -0.63045,1.00953 -1.14628,5.12528 -1.14628,9.14612 0,7.14463 -0.0861,7.3947 -3.79217,11.01357 l -3.79217,3.70295 h -9.01166 c -8.88087,0 -9.05806,-0.0479 -12.20783,-3.29761 z m 0.80382,-15.77571 c 0,-2.56265 -3.30982,-2.27193 -3.81183,0.3348 -0.2311,1.2 0.30742,1.73852 1.73852,1.73852 1.43109,0 2.07332,-0.64223 2.07331,-2.07332 z m 27.00001,-7.92668 c 0,-2.07031 -2.41251,-2.7596 -3.5,-1 -0.83704,1.35436 0.29242,3 2.05901,3 0.79255,0 1.44099,-0.9 1.44099,-2 z m -102.93356,19.12414 c -1.4703,-2.74728 -1.33515,-4.65624 0.43356,-6.12414 1.2204,-1.01284 1.5,-4.2652 1.5,-17.44813 0,-21.1766 0.51914,-20.55187 -17.07834,-20.55187 h -12.44945 l -13.472213,-13.5 c -13.590348,-13.618383 -16.25838,-15.303455 -19,-12.000004 -1.49539,1.801833 -5.13749,1.962514 -6.8,0.3 -0.66,-0.66 -1.2,-2.469647 -1.2,-4.021439 0,-3.9524 3.88214,-5.74103 7.42385,-3.420412 1.37818,0.903018 3.99037,1.641851 5.80486,1.641851 2.903891,0 4.912872,1.617123 16.77129,13.500004 l 13.472213,13.5 h 12.06773 12.06773 l 3.19616,3.29761 3.19617,3.2976 v 16.87366 c 0,14.4085 0.24579,17.14524 1.68239,18.73267 1.30407,1.44098 1.46866,2.47062 0.73195,4.57874 -1.24227,3.55478 -6.69488,4.43255 -8.3479,1.34386 z m 5.74319,-2.87414 c -0.18536,-0.9625 -0.99969,-1.75 -1.80963,-1.75 -0.80994,0 -1.62427,0.7875 -1.80963,1.75 -0.23646,1.22785 0.30348,1.75 1.80963,1.75 1.50615,0 2.04609,-0.52215 1.80963,-1.75 z M 71.075317,91.490352 c 0.54676,-1.642126 -2.58648,-2.81434 -3.93038,-1.470441 -0.5751,0.575108 -0.7279,1.559776 -0.33954,2.188151 0.88355,1.429618 3.71332,0.953976 4.26992,-0.71771 z M 216.3298,156.74558 c -0.77257,-0.93089 -0.97124,-2.53323 -0.52694,-4.25 0.39227,-1.51566 0.93374,-5.00575 1.2033,-7.75575 0.42878,-4.3744 1.132,-5.65688 5.62032,-10.25 l 5.13022,-5.25 h 21.78416 21.78416 v 2.5 2.5 H 250.0212 228.71735 l -3.19616,3.29761 c -3.72461,3.84281 -4.25241,8.69992 -1.47186,13.54475 1.64675,2.86929 1.63978,3.09785 -0.15499,5.08104 -2.19966,2.4306 -5.80056,2.70781 -7.56454,0.58235 z m 5.49522,-3.50575 c 0,-0.80994 -0.7875,-1.62427 -1.75,-1.80963 -1.22785,-0.23646 -1.75,0.30348 -1.75,1.80963 0,1.50615 0.52216,2.04609 1.75,1.80963 0.9625,-0.18536 1.75,-0.99969 1.75,-1.80963 z m -220.4999933,0.5 c 0,-1.95003 0.51162,-2.5 2.32569,-2.5 2.86172,0 6.6743103,-3.87254 6.6743103,-6.77927 0,-2.96748 3.53675,-4.75283 6.62649,-3.34505 4.35838,1.98581 2.68459,9.12432 -2.1394,9.12432 -1.1621,0 -3.40629,1.35 -4.9870903,3 -3.77286,3.93801 -8.5,4.21608 -8.5,0.5 z m 15.7502903,-8.24947 c 0.54676,-1.64213 -2.58648,-2.81434 -3.93037,-1.47044 -0.57511,0.5751 -0.72791,1.55977 -0.33955,2.18815 0.88355,1.42961 3.71332,0.95397 4.26992,-0.71771 z m 231.201533,6.99947 c -6.54332,-7.10393 -7.57304,-11.14163 -3.51889,-13.79802 4.37392,-2.86589 9.07162,1.86821 6.54275,6.59343 -0.9141,1.70803 -0.79737,2.49415 0.5996,4.03778 1.46053,1.61386 3.13264,1.91681 10.57971,1.91681 8.76801,0 8.84501,0.0218 8.84501,2.5 0,2.49655 -0.0135,2.5 -9.79706,2.5 h -9.79704 z m 1.04818,-9.79797 c 0,-1.87889 -1.97305,-2.87899 -3.21992,-1.63212 -1.49333,1.49333 -0.17969,4.27066 1.68207,3.55624 0.84582,-0.32457 1.53785,-1.19042 1.53785,-1.92412 z m -221.800003,6.34797 c -1.90147,-1.90147 -1.45796,-6.59158 0.73426,-7.76482 3.05351,-1.63419 4.89222,-1.22964 6.6577,1.46482 1.51741,2.31587 1.51741,2.68413 0,5 -1.75527,2.67888 -5.37626,3.3157 -7.39196,1.3 z m 5.3,-3.8 c 0,-0.80994 -0.7875,-1.62427 -1.75,-1.80963 -1.22785,-0.23646 -1.75,0.30348 -1.75,1.80963 0,1.50615 0.52215,2.04609 1.75,1.80963 0.9625,-0.18536 1.75,-0.99969 1.75,-1.80963 z m 113.700003,3.8 c -1.4537,-1.4537 -1.59033,-6.44073 -0.2,-7.3 0.58842,-0.36366 1,-6.29206 1,-14.40403 0,-18.10933 1.16127,-17.09597 -19.59124,-17.09597 H 111.80002 L 96.825027,95.239826 c -13.832643,-13.855742 -15.253292,-15 -18.62319,-15 -2.00651,0 -4.88107,0.639622 -6.38792,1.421383 -3.67816,1.908257 -6.89393,0.659219 -7.31115,-2.839727 -0.17724,-1.48643 0.21536,-3.350387 0.87245,-4.142128 1.36696,-1.647094 5.52823,-1.930667 6.44981,-0.439528 0.33992,0.55 2.9596,1 5.82152,1 h 5.203487 l 14.974993,15 14.974993,15.000004 h 16.56634 16.56634 l 3.19616,3.29761 3.19617,3.2976 v 14.64338 c 0,8.68356 0.407,14.89491 1,15.26141 1.39033,0.85927 1.2537,5.8463 -0.2,7.3 -0.66,0.66 -2.145,1.2 -3.3,1.2 -1.155,0 -2.64,-0.54 -3.3,-1.2 z m 5.55029,-3.54947 c 0.54676,-1.64213 -2.58648,-2.81434 -3.93038,-1.47044 -0.5751,0.5751 -0.7279,1.55977 -0.33954,2.18815 0.88355,1.42961 3.71332,0.95397 4.26992,-0.71771 z M 70.639897,78.861681 c 0.29086,-0.75798 0.0347,-1.872273 -0.56922,-2.476206 -1.44195,-1.441949 -3.83893,0.447684 -3.07922,2.427464 0.69813,1.819304 2.95742,1.849488 3.64844,0.04874 z m 45.885133,67.178149 c -1.50085,-1.50085 -1.56577,-5.45591 -0.10438,-6.35909 1.05387,-0.65133 0.8501,-3.72918 -0.64195,-9.69666 -1.27959,-5.11772 4.29857,-7.88548 7.89134,-3.91551 2.05707,2.27303 2.11414,4.54531 0.15499,6.17126 -1.95618,1.62348 -1.90316,4.45507 0.14185,7.57615 2.32062,3.54171 0.53199,7.42385 -3.42041,7.42385 -1.55179,0 -3.36144,-0.54 -4.02144,-1.2 z m 5.8,-3.34797 c 0,-1.87889 -1.97304,-2.87899 -3.21991,-1.63212 -1.49333,1.49333 -0.17969,4.27066 1.68206,3.55624 0.84582,-0.32457 1.53785,-1.19042 1.53785,-1.92412 z m -0.5,-13.45203 c 0,-0.80994 -0.7875,-1.62427 -1.75,-1.80963 -1.22785,-0.23646 -1.75,0.30348 -1.75,1.80963 0,1.50615 0.52215,2.04609 1.75,1.80963 0.9625,-0.18536 1.75,-0.99969 1.75,-1.80963 z m -55.988893,6.42138 c -2.19484,-1.13869 -8.88238,-1.42138 -33.62542,-1.42138 H 1.3250267 v -2.5 -2.5 H 33.266007 c 20.2153,0 32.16787,-0.3671 32.55902,-1 0.92157,-1.49114 5.08285,-1.20757 6.44981,0.43953 0.65709,0.79174 1.04969,2.6557 0.87245,4.14213 -0.41722,3.49894 -3.63299,4.74798 -7.31115,2.83972 z m 4.80376,-2.79952 c 0.29086,-0.75798 0.0347,-1.87228 -0.56922,-2.47621 -1.44195,-1.44195 -3.83893,0.44768 -3.07922,2.42746 0.69813,1.81931 2.95743,1.84949 3.64844,0.0487 z m 132.685123,2.37814 c -2.26853,-2.26853 -2.43543,-3.31787 -0.96482,-6.06574 1.17324,-2.19222 5.86335,-2.63573 7.76482,-0.73426 1.9093,1.9093 1.39541,5.54973 -1.02251,7.2433 -2.86015,2.00333 -3.36998,1.96421 -5.77749,-0.4433 z m 4.66417,-2.56722 c 0.78814,-2.05384 -0.79371,-3.58878 -2.56824,-2.49206 -1.51128,0.93402 -0.81523,4.05928 0.90407,4.05928 0.58452,0 1.3334,-0.70525 1.66417,-1.56722 z m -48.12769,-0.39249 c -3.52276,-3.8926 0.30467,-9.17765 5.46121,-7.54103 2.85045,0.9047 3.66754,5.1082 1.46585,7.54103 -0.97543,1.07784 -2.53402,1.95971 -3.46353,1.95971 -0.92951,0 -2.4881,-0.88187 -3.46353,-1.95971 z m 5.28685,-3.37316 c 0.21801,-1.12408 -0.35203,-1.66713 -1.75,-1.66713 -1.14032,0 -2.07332,0.6 -2.07332,1.33333 0,3.06275 3.23923,3.34555 3.82332,0.3338 z M 27.896457,124.6684 c -1.86505,-1.86505 -2.05418,-5.54582 -0.37143,-7.22857 1.76719,-1.76719 5.25444,-1.46032 7.14501,0.62874 2.1631,2.39019 2.08772,3.73854 -0.34501,6.17126 -2.40772,2.40772 -4.32182,2.53533 -6.42857,0.42857 z m 4.92857,-3.42857 c 0,-0.80994 -0.7875,-1.62427 -1.75,-1.80963 -1.22785,-0.23646 -1.75,0.30348 -1.75,1.80963 0,1.50615 0.52215,2.04609 1.75,1.80963 0.9625,-0.18536 1.75,-0.99969 1.75,-1.80963 z m 32.5,0.5 c -0.9643,-1.16191 -3.65091,-1.5 -11.9195,-1.5 h -10.6746 l -3.9059,-4 c -3.2998,-3.3793 -4.54119,-4 -8,-4 -3.45881,0 -4.7002,0.6207 -8,4 l -3.9059,4 h -8.79705 c -8.1303803,0 -8.7970503,-0.15157 -8.7970503,-2 0,-1.829 0.66667,-2 7.79705,-2 7.7789103,0 7.8061403,-0.009 11.7029503,-4 3.77639,-3.86738 4.12453,-4 10.5,-4 6.37547,0 6.72361,0.13262 10.5,4 l 3.9059,4 h 8.83223 c 6.50589,0 9.49224,-0.43245 11.33802,-1.64185 3.54171,-2.32062 7.42385,-0.53199 7.42385,3.42041 0,1.55179 -0.54,3.36144 -1.2,4.02144 -1.66251,1.66251 -5.30461,1.50183 -6.8,-0.3 z m 5.75029,-3.24947 c 0.54676,-1.64213 -2.58648,-2.81434 -3.93038,-1.47044 -0.5751,0.5751 -0.7279,1.55977 -0.33954,2.18815 0.88355,1.42961 3.71332,0.95397 4.26992,-0.71771 z m 88.449713,0.54947 c -2.0157,-2.0157 -1.37888,-5.63669 1.3,-7.39196 2.30385,-1.50954 2.69339,-1.51135 4.96482,-0.023 3.66786,2.40327 45.4025,2.40327 49.07036,0 2.27143,-1.4883 2.66097,-1.48649 4.96482,0.023 2.67888,1.75527 3.3157,5.37626 1.29999,7.39196 -1.45369,1.4537 -6.44072,1.59033 -7.29999,0.2 -0.38289,-0.61953 -9.32405,-1 -23.5,-1 -14.17595,0 -23.11711,0.38047 -23.5,1 -0.85927,1.39033 -5.8463,1.2537 -7.3,-0.2 z m 5.46417,-4.23278 c -0.33077,-0.86197 -1.07965,-1.56722 -1.66417,-1.56722 -1.7193,0 -2.41535,3.12526 -0.90408,4.05928 1.77453,1.09672 3.35638,-0.43822 2.56825,-2.49206 z m 54.14546,0.68278 c -0.18536,-0.9625 -0.99969,-1.75 -1.80963,-1.75 -0.80994,0 -1.62427,0.7875 -1.80963,1.75 -0.23646,1.22785 0.30348,1.75 1.80963,1.75 1.50615,0 2.04609,-0.52215 1.80963,-1.75 z m 25.00915,-1.9127 -6.66271,-6.6627 -3.24161,1.56996 c -4.18306,2.02592 -7.30578,0.95111 -7.73672,-2.6629 -0.17725,-1.48643 0.21536,-3.35039 0.87244,-4.14214 1.36697,-1.64709 5.52825,-1.930663 6.44982,-0.43952 0.33992,0.55 1.84105,1 3.33584,1 2.03667,0 4.45868,1.75432 9.66416,7 l 6.94636,7 h 8.77682 c 8.11014,0 8.77682,0.15192 8.77682,2 0,1.87004 -0.66668,2 -10.25926,2 H 250.8065 Z m -11.50392,-7.71544 c 0.29086,-0.75798 0.0347,-1.87228 -0.56922,-2.47621 -1.44195,-1.44195 -3.83893,0.44768 -3.07922,2.42746 0.69813,1.81931 2.95743,1.84949 3.64844,0.0487 z M 5.3602067,110.30557 c -0.56935,-1.06384 -1.03518,-2.65296 -1.03518,-3.53138 0,-0.87842 -0.675,-1.85615 -1.5,-2.17273 -0.825,-0.31659 -1.5,-1.42746 -1.5,-2.46862 0,-2.536405 3.33906,-2.36273 8.5,0.44211 4.2404803,2.30459 5.6264503,5.60266 3.4543203,8.21992 -1.76719,2.12933 -6.6801403,1.82578 -7.9191403,-0.4893 z m 5.7744503,-2.81574 c -0.18536,-0.9625 -0.99969,-1.75 -1.8096303,-1.75 -0.80993,0 -1.62427,0.7875 -1.80963,1.75 -0.23646,1.22785 0.30348,1.75 1.80963,1.75 1.5061503,0 2.0460903,-0.52215 1.8096303,-1.75 z m 251.940373,-1.3301 c -2.01025,-1.17086 -2.34868,-5.92123 -0.55001,-7.719904 1.76719,-1.767189 5.25444,-1.460321 7.14502,0.628741 2.15105,2.376883 2.09544,4.462693 -0.17376,6.516273 -2.08036,1.88271 -3.89668,2.04533 -6.42125,0.57489 z m 4.80384,-3.00703 c 0.94096,-1.5225 -1.1024,-3.300084 -2.96977,-2.58351 -0.89841,0.34475 -1.30219,1.24162 -0.96022,2.13279 0.68248,1.77855 2.94871,2.03846 3.92999,0.45072 z M 27.329797,102.74558 c -0.7954,-0.95841 -0.96696,-2.4825 -0.4784,-4.250008 0.41895,-1.51566 0.95019,-7.880138 1.18054,-14.143283 l 0.41881,-11.387537 -3.25903,-3.362463 -3.25902,-3.362463 h -10.30384 c -9.6371603,0 -10.3038303,-0.129402 -10.3038303,-2 0,-1.881876 0.66667,-2 11.2875903,-2 h 11.28759 l 4.71241,4.784349 4.71241,4.784349 v 11.134612 c 0,8.71293 0.37502,11.78805 1.72431,14.139049 1.64675,2.869296 1.63978,3.097845 -0.15499,5.081045 -2.19966,2.4306 -5.80057,2.70781 -7.56455,0.58235 z m 5.49523,-3.505754 c 0,-0.809935 -0.7875,-1.624269 -1.75,-1.809629 -1.22785,-0.236462 -1.75,0.30348 -1.75,1.809629 0,1.506144 0.52215,2.046094 1.75,1.809624 0.9625,-0.18536 1.75,-0.99969 1.75,-1.809624 z m 13.7,3.800004 c -1.4537,-1.45371 -1.59033,-6.44073 -0.2,-7.300004 0.55,-0.339919 1,-2.364919 1,-4.5 0,-2.135081 -0.45,-4.160081 -1,-4.5 -0.55,-0.339919 -1,-1.661376 -1,-2.936572 0,-1.275196 -0.675,-2.878739 -1.5,-3.563428 -0.98511,-0.817573 -1.5,-3.048741 -1.5,-6.5 0,-3.451259 -0.51488,-5.682427 -1.5,-6.5 -3.53437,-2.933265 0.26616,-8.777473 4.94448,-7.603292 2.96889,0.745145 4.43944,4.958259 2.70181,7.740654 -0.63046,1.009525 -1.14629,3.866606 -1.14629,6.349069 0,4.136605 0.20687,4.513569 2.47695,4.513569 1.53859,0 3.0975,0.947087 4.11501,2.5 1.50954,2.303852 1.51135,2.693388 0.023,4.964817 -0.88826,1.355649 -1.61501,3.846481 -1.61501,5.535183 0,1.688702 0.72675,4.179534 1.61501,5.535183 1.4883,2.271429 1.48649,2.660965 -0.023,4.964821 -1.75527,2.67888 -5.37626,3.3157 -7.39196,1.3 z m 5.55029,-3.549478 c 0.59085,-1.774541 -2.77104,-2.834992 -3.78523,-1.193989 -0.4582,0.741384 -0.59583,1.731877 -0.30584,2.201087 0.74012,1.19754 3.59066,0.49583 4.09107,-1.007098 z m -0.25029,-16.250526 c 0,-0.809935 -0.7875,-1.624269 -1.75,-1.809629 -1.22785,-0.236462 -1.75,0.30348 -1.75,1.809629 0,1.506149 0.52215,2.046091 1.75,1.809629 0.9625,-0.18536 1.75,-0.999694 1.75,-1.809629 z m -5.5,-19 c 0,-1.1 -0.64844,-2 -1.44098,-2 -1.76659,0 -2.89606,1.64564 -2.05902,3 1.08749,1.759595 3.5,1.070306 3.5,-1 z M 173.52503,103.03983 c -1.9921,-1.9921 -1.44996,-6.595862 0.92649,-7.867701 3.26019,-1.744799 6.87351,0.277134 6.87351,3.846258 0,3.351133 -1.61189,5.221443 -4.5,5.221443 -1.155,0 -2.64,-0.54 -3.3,-1.2 z m 5.55029,-3.549478 c 0.54676,-1.642126 -2.58648,-2.81434 -3.93038,-1.470441 -0.5751,0.575108 -0.7279,1.559776 -0.33954,2.188149 0.88355,1.42962 3.71332,0.95398 4.26992,-0.717708 z m 7.31615,2.873618 c -1.5277,-2.854534 -1.32428,-4.580826 0.7623,-6.469156 2.43254,-2.201416 4.47008,-2.087262 6.69866,0.375294 1.45303,1.60557 1.63856,2.599215 0.88694,4.750002 -1.24227,3.55478 -6.69488,4.43255 -8.3479,1.34386 z m 5.74319,-2.874144 c -0.18536,-0.9625 -0.99969,-1.75 -1.80963,-1.75 -0.80994,0 -1.62427,0.7875 -1.80963,1.75 -0.23646,1.227844 0.30348,1.750004 1.80963,1.750004 1.50615,0 2.04609,-0.52216 1.80963,-1.750004 z m 8.39037,3.550004 c -1.9921,-1.9921 -1.44996,-6.595862 0.92649,-7.867701 3.26019,-1.744799 6.87351,0.277134 6.87351,3.846258 0,3.351133 -1.61189,5.221443 -4.5,5.221443 -1.155,0 -2.64,-0.54 -3.3,-1.2 z m 5.55029,-3.549478 c 0.54676,-1.642126 -2.58648,-2.81434 -3.93038,-1.470441 -0.5751,0.575108 -0.7279,1.559776 -0.33954,2.188149 0.88355,1.42962 3.71332,0.95398 4.26992,-0.717708 z M 13.161737,98.78079 c -0.8952,-1.964749 -0.79038,-2.962719 0.52144,-4.964817 4.38354,-6.690128 0.49189,-13.576147 -7.6726003,-13.576147 -4.33125,0 -4.68555,-0.189037 -4.68555,-2.5 0,-2.379164 0.2802,-2.5 5.79705,-2.5 5.3926303,0 6.0553903,0.264557 9.5000003,3.792163 3.30014,3.379643 3.70295,4.352261 3.70295,8.940983 0,2.831851 0.45,5.426935 1,5.766854 1.38227,0.854287 1.25559,4.844405 -0.2,6.300004 -2.17047,2.17047 -6.7291,1.44972 -7.96329,-1.25904 z m 5.82746,-1.108181 c 0.83346,-2.171962 -1.28244,-4.214515 -2.79695,-2.7 -1.28004,1.280033 -0.48705,4.267217 1.13278,4.267217 0.58452,0 1.3334,-0.705248 1.66417,-1.567217 z m 97.535833,2.367221 c -1.5425,-1.542505 -1.5425,-5.057503 0,-6.600004 1.4537,-1.453703 6.44073,-1.590334 7.3,-0.2 0.87599,1.417384 19.17647,1.246446 23.22334,-0.21692 4.258,-1.539713 6.77666,-0.158256 6.77666,3.71692 0,3.875174 -2.51866,5.256634 -6.77666,3.716924 -4.04687,-1.46337 -22.34735,-1.634308 -23.22334,-0.21692 -0.85927,1.39033 -5.8463,1.2537 -7.3,-0.2 z m 5.46417,-2.367221 c 0.83346,-2.171962 -1.28244,-4.214515 -2.79695,-2.7 -1.28004,1.280033 -0.48705,4.267217 1.13278,4.267217 0.58452,0 1.3334,-0.705248 1.66417,-1.567217 z m 29.21548,-2.077793 c -0.87143,-1.050011 -1.47465,-1.106074 -2.52466,-0.234642 -1.05001,0.871431 -1.10607,1.474651 -0.23464,2.524662 0.87143,1.050011 1.47465,1.106074 2.52466,0.234642 1.05001,-0.871431 1.10607,-1.474651 0.23464,-2.524662 z m 65.36543,4.490094 c -2.65482,-2.654824 -0.81519,-7.845084 2.78061,-7.845084 3.57118,0 7.59694,-6.879129 4.97431,-8.5 -1.66492,-1.028977 -1.1228,-5.078893 0.92834,-6.935145 4.23231,-3.830195 9.91393,1.974542 6.71351,6.858998 -0.90302,1.378179 -1.64185,3.28011 -1.64185,4.226512 0,0.946403 -0.99571,2.780615 -2.21268,4.076027 -1.21698,1.295413 -2.67948,3.799416 -3.25,5.564452 -0.82417,2.54974 -1.65477,3.26979 -4.04224,3.50424 -1.65271,0.16229 -3.56521,-0.26521 -4.25,-0.95 z m 5.41909,-2.412301 c 0.83346,-2.171962 -1.28244,-4.214515 -2.79695,-2.7 -1.28004,1.280033 -0.48705,4.267217 1.13278,4.267217 0.58452,0 1.33339,-0.705248 1.66417,-1.567217 z m 8.14546,-17.182783 c -0.18536,-0.9625 -0.99969,-1.75 -1.80963,-1.75 -0.80994,0 -1.62427,0.7875 -1.80963,1.75 -0.23646,1.227849 0.30348,1.75 1.80963,1.75 1.50615,0 2.04609,-0.522151 1.80963,-1.75 z M 2.9948467,91.789149 c -4.27683,-3.241348 1.32297,-10.116875 5.82083,-7.146913 2.4007503,1.585228 3.1293303,5.145637 1.4636703,7.152632 -1.5041703,1.812408 -4.8890603,1.809751 -7.2845003,-0.0057 z m 4.88751,-4.420563 c -2.14624,-2.146242 -4.52022,0.0061 -2.58227,2.34119 1.00712,1.213503 1.6014,1.296524 2.70781,0.378284 1.2183,-1.011104 1.20066,-1.393275 -0.12554,-2.719474 z M 245.77701,90.806884 c -2.07158,-3.161638 -0.49404,-6.408645 3.50189,-7.207831 1.5648,-0.312961 4.55665,-2.321816 6.64856,-4.464123 3.55579,-3.641462 4.18096,-3.895104 9.60052,-3.895104 5.51685,0 5.79705,0.120836 5.79705,2.5 0,2.319231 -0.34686,2.5 -4.79705,2.5 -4.2351,0 -5.23084,0.44424 -8.5,3.792163 -2.03662,2.085689 -3.70295,4.470689 -3.70295,5.3 0,4.242355 -6.05066,5.286349 -8.54802,1.474895 z m 5.10535,-3.438298 c -2.14624,-2.146242 -4.52022,0.0061 -2.58227,2.34119 1.00712,1.213503 1.60139,1.296524 2.70781,0.378284 1.2183,-1.011104 1.20066,-1.393275 -0.12554,-2.719474 z m 11.64266,4.67124 c -2.01569,-2.015695 -1.37887,-5.636685 1.30001,-7.391957 2.31587,-1.517417 2.68412,-1.517417 5,0 4.56454,2.990801 2.4561,8.591957 -3.23426,8.591957 -1.02617,0 -2.40574,-0.54 -3.06575,-1.2 z m 5.04953,-4.950475 c -1.79149,-1.79149 -4.71604,0.88343 -3.09775,2.833342 1.0111,1.218305 1.39327,1.200664 2.71947,-0.125536 1.17421,-1.174211 1.26463,-1.821458 0.37828,-2.707806 z m -93.80839,2.682278 c -1.61356,-1.220433 -7.50697,-1.473563 -34.92324,-1.5 l -32.98211,-0.0318 -9.719828,-9.683355 -9.719827,-9.683354 -3.369041,1.814348 c -3.86023,2.078871 -7.104777,1.08844 -8.249497,-2.518241 -1.22761,-3.867845 5.952006,-8.279383 8.02241,-4.929398 0.339919,0.55 1.612864,1 2.828767,1 1.461944,0 5.415065,3.21771 11.671233,9.5 l 9.460503,9.5 h 33.21073 c 21.0618,0 33.43682,-0.365813 33.82877,-1 0.85429,-1.382265 4.84441,-1.255595 6.3,0.2 1.90147,1.901469 1.45796,6.591576 -0.73426,7.764816 -2.55816,1.369085 -3.31952,1.310471 -5.62461,-0.433013 z m 5.30916,-3.281277 c 0.54676,-1.642126 -2.58648,-2.81434 -3.93038,-1.470441 -0.5751,0.575108 -0.7279,1.559776 -0.33954,2.188151 0.88355,1.429618 3.71332,0.953976 4.26992,-0.71771 z M 81.325027,67.239826 c 0,-2.070306 -2.41251,-2.759595 -3.5,-1 -0.83704,1.35436 0.292427,3 2.059017,3 0.792541,0 1.440983,-0.9 1.440983,-2 z M 187.54754,89.683122 c -1.22238,-0.856187 -2.22251,-2.562494 -2.22251,-3.791792 0,-1.31166 -1.77153,-3.973712 -4.28785,-6.443296 l -4.28785,-4.208208 H 142.7651 108.78087 l -8.45584,-8.5 -8.455847,-8.5 H 80.771419 c -10.307392,0 -11.252612,0.164833 -13.272082,2.314451 -1.19587,1.272948 -2.17431,3.207948 -2.17431,4.3 0,4.71662 -5.89003,6.009216 -8.59196,1.885549 -1.51741,-2.315871 -1.51741,-2.684129 0,-5 0.96227,-1.4686 2.58804,-2.5 3.9407,-2.5 1.26645,0 3.35951,-1.125 4.65126,-2.5 2.2819,-2.428974 2.73499,-2.5 15.947774,-2.5 h 13.599146 l 7.953083,8 7.95308,8 h 33.55762 33.55762 l 5.38191,5.449603 c 3.20111,3.241374 6.42148,5.571326 7.94743,5.75 1.78462,0.208961 2.86938,1.169312 3.56379,3.155065 0.85811,2.453904 0.66965,3.120753 -1.34238,4.75 -2.83166,2.292941 -3.08557,2.307523 -5.89656,0.338628 z m 4.60081,-3.776162 c 0.21801,-1.124084 -0.35203,-1.667134 -1.75,-1.667134 -1.14032,0 -2.07332,0.6 -2.07332,1.333333 0,3.062743 3.23923,3.345548 3.82332,0.333801 z M 62.589457,65.64206 c 0.95431,-0.954313 -0.34972,-3.402234 -1.8124,-3.402234 -1.67517,0 -2.76807,1.679625 -1.95203,3 0.683,1.105123 2.83193,1.334739 3.76443,0.402234 z M 201.07502,90.159727 c -1.89599,-1.104311 -2.42945,-6.381945 -0.75,-7.419901 0.55,-0.339919 1,-1.914919 1,-3.5 0,-1.585081 -0.45,-3.160081 -1,-3.5 -0.55,-0.339919 -1,-1.951124 -1,-3.580456 0,-3.71109 3.54599,-5.768076 6.87351,-3.987241 2.2481,1.203149 3.02119,6.396707 1.12649,7.567697 -0.55,0.339919 -1,1.914919 -1,3.5 0,1.585081 0.45,3.160081 1,3.5 1.79317,1.108243 1.13631,6.356684 -0.93426,7.464816 -2.36332,1.264811 -3.07744,1.258777 -5.31574,-0.04492 z m 5.0003,-3.669375 c 0.54675,-1.642126 -2.58649,-2.81434 -3.93039,-1.470441 -0.5751,0.575108 -0.7279,1.559776 -0.33954,2.188151 0.88356,1.429618 3.71332,0.953976 4.26993,-0.71771 z m 0,-14 c 0.54675,-1.642126 -2.58649,-2.81434 -3.93039,-1.470441 -0.5751,0.575108 -0.7279,1.559776 -0.33954,2.188151 0.88356,1.429618 3.71332,0.953976 4.26993,-0.71771 z m 19.7497,-4.250526 -3.9059,-4 h -35.07386 -35.07387 l -6.94636,-7 -6.94636,-7 -44.026823,0.0318 c -37.12797,0.02682 -44.33099,0.261865 -45.96795,1.5 -2.60418,1.969701 -4.90372,1.849611 -6.90388,-0.360544 -2.15105,-2.376883 -2.09544,-4.462686 0.17375,-6.516271 2.2772,-2.060833 5.53118,-2.131159 7.17126,-0.154985 1.07331,1.293253 7.53778,1.5 46.901333,1.5 h 45.65645 l 6.44222,6.5 6.44222,6.5 h 35.07594 35.07593 l 3.9059,4 c 3.83433,3.926699 4.03642,4 11.02863,4 6.30462,0 7.39251,-0.28715 9.47138,-2.5 2.21111,-2.35362 2.95321,-2.5 12.67431,-2.5 9.65901,0 10.32569,0.129128 10.32569,2 0,1.848707 -0.66668,2 -8.81292,2 -8.48675,0 -8.91927,0.111029 -11.68708,3 -2.7817,2.903461 -3.16735,3 -11.98415,3 h -9.10996 z m -179.499993,-20 c 0,-1.1 -0.64844,-2 -1.44098,-2 -1.76659,0 -2.89606,1.64564 -2.05902,3 1.08749,1.759595 3.5,1.070306 3.5,-1 z m 65.000003,14 c -2.40751,-2.40751 -2.44663,-2.917337 -0.4433,-5.777494 1.59643,-2.279216 5.82958,-3.024546 6.9433,-1.222506 0.85835,1.388847 9.15924,1.252676 13.22334,-0.21692 2.42123,-0.875529 3.84383,-0.917368 5.07099,-0.149138 2.56178,1.603726 2.65226,5.651924 0.1764,7.892545 -2.03277,1.839637 -2.25288,1.848128 -5.12837,0.197824 -3.65105,-2.095416 -10.63383,-2.196612 -13.28349,-0.192508 -2.61249,1.975987 -4.17802,1.849052 -6.55887,-0.531803 z m 5.37615,-2.537854 c 0.34197,-0.891165 -0.0618,-1.78803 -0.96023,-2.132783 -1.86736,-0.716573 -3.91072,1.061016 -2.96977,2.583505 0.98128,1.587744 3.24751,1.327836 3.93,-0.450722 z m 18.62385,-0.462146 c 0,-1.333333 -0.66667,-2 -2,-2 -1.92719,0 -2.7099,1.956769 -1.33333,3.333333 1.37656,1.376564 3.33333,0.593857 3.33333,-1.333333 z m 116.49999,-2 c -0.33998,-0.550101 -4.78135,-1 -9.87193,-1 -8.97672,0 -9.33997,-0.08985 -12.12807,-3 l -2.87418,-3 h -16.19047 c -13.17157,0 -16.42258,0.279692 -17.43535,1.5 -2.93325,3.534368 -8.77746,-0.266163 -7.60328,-4.944476 0.82468,-3.285794 4.75661,-4.340309 8.07538,-2.16576 2.01378,1.319478 5.50207,1.610236 19.3184,1.610236 16.69196,0 16.8844,0.02504 19.2095,2.5 2.13502,2.272625 3.09471,2.5 10.55187,2.5 6.07182,0 8.5267,-0.38974 9.44813,-1.5 1.69577,-2.043283 3.6168,-1.883197 6,0.5 2.40772,2.407719 2.53533,4.321818 0.42857,6.428571 -1.75848,1.758483 -5.97976,2.10663 -6.92857,0.571429 z m 5.30963,-3.75 c -0.18536,-0.9625 -0.99969,-1.75 -1.80963,-1.75 -0.80994,0 -1.62427,0.7875 -1.80963,1.75 -0.23646,1.227849 0.30348,1.75 1.80963,1.75 1.50616,0 2.0461,-0.522151 1.80963,-1.75 z m -64.9863,-5.582866 c 0.21801,-1.124084 -0.35203,-1.667134 -1.75,-1.667134 -1.14032,0 -2.07332,0.6 -2.07332,1.333333 0,3.062743 3.23923,3.345548 3.82332,0.333801 z M 22.325027,51.739826 c -0.95281,-1.148072 -3.56235,-1.5 -11.12245,-1.5 -9.2108803,0 -9.8775503,-0.134986 -9.8775503,-2 0,-1.865014 0.66667,-2 9.8775503,-2 7.5601,0 10.16964,-0.351928 11.12245,-1.5 1.49539,-1.801833 5.13749,-1.962514 6.8,-0.3 1.90147,1.901469 1.45796,6.591576 -0.73426,7.764816 -2.6903,1.439806 -4.60694,1.292934 -6.06574,-0.464816 z m 5,-3.5 c 0,-2.070306 -2.41251,-2.759595 -3.5,-1 -0.83704,1.35436 0.29243,3 2.05902,3 0.79254,0 1.44098,-0.9 1.44098,-2 z m 141.000003,3.5 c -0.81234,-0.978814 -3.03836,-1.5 -6.4066,-1.5 -4.93158,0 -5.4039,-0.245226 -10.5934,-5.5 l -5.43168,-5.5 h -17.47944 -17.47944 l -2.80472,-2.687091 -2.80472,-2.687091 -2.80472,2.687091 -2.804721,2.687091 H 60.716477 21.717357 l -3.19616,-3.297607 c -2.84036,-2.930505 -3.19617,-3.936336 -3.19617,-9.035184 0,-3.636253 -0.60131,-6.655289 -1.64185,-8.243356 -2.32062,-3.541711 -0.53199,-7.423853 3.42041,-7.423853 1.55179,0 3.36144,0.54 4.02144,1.2 1.45559,1.455595 1.58227,5.445713 0.2,6.3 -0.55,0.339919 -1,3.446732 -1,6.904029 0,10.173934 -2.44784,9.595971 40.64165,9.595971 h 36.984168 l 2.874185,-3 c 1.5808,-1.65 3.6058,-3 4.5,-3 0.8942,0 2.9192,1.35 4.5,3 l 2.87418,3 h 17.4725 17.47249 l 5.76618,5.5 c 6.20518,5.918739 10.28568,7.046663 14.35578,3.968197 1.06762,-0.807509 2.72298,-1.468197 3.67857,-1.468197 2.28186,0 4.8803,2.662169 4.8803,5 0,4.1394 -5.4797,6.536771 -8,3.5 z m 5,-3.5 c 0,-1.333333 -0.66667,-2 -2,-2 -1.92719,0 -2.7099,1.956769 -1.33333,3.333333 1.37656,1.376564 3.33333,0.593857 3.33333,-1.333333 z M 18.989197,16.672609 c 0.83346,-2.171962 -1.28244,-4.214515 -2.79695,-2.7 -1.28004,1.280033 -0.48705,4.267217 1.13278,4.267217 0.58452,0 1.3334,-0.705248 1.66417,-1.567217 z M 261.5212,46.942219 c -2.25773,-2.329377 -3.19617,-4.248212 -3.19617,-6.535184 0,-1.780666 -0.71233,-4.32471 -1.58294,-5.653429 -0.92649,-1.414019 -1.31355,-3.264578 -0.93335,-4.462493 0.76165,-2.399741 5.13083,-3.781203 7.42106,-2.346414 1.95648,1.225704 2.65441,5.13594 1.17988,6.610462 -0.59656,0.596566 -1.08466,2.769148 -1.08466,4.827961 0,3.955588 2.63278,6.856704 6.22251,6.856704 1.11082,0 1.77749,0.75012 1.77749,2 0,3.468702 -5.94707,2.681565 -9.80382,-1.297607 z m 0.62714,-15.035259 c 0.21801,-1.124084 -0.35203,-1.667134 -1.75,-1.667134 -1.14031,0 -2.07331,0.6 -2.07331,1.333333 0,3.062743 3.23923,3.345548 3.82331,0.333801 z m -59.12549,8.551459 c -2.09721,-2.317397 -2.16927,-4.582438 -0.19783,-6.218593 0.82501,-0.684689 1.5,-1.773463 1.5,-2.419497 0,-0.646034 1.80001,-2.93226 4,-5.080503 l 4,-3.905896 V 12.536878 2.2398255 h 2.5 2.5 V 13.536878 24.83393 l -3.88056,3.789262 c -3.59964,3.514956 -3.80024,4.002026 -2.77116,6.728386 0.79677,2.110887 0.80515,3.4251 0.0297,4.663686 -1.53465,2.451228 -5.64809,2.688578 -7.68016,0.443155 z m 5.30217,-3.218593 c 0,-2.070306 -2.41251,-2.759595 -3.5,-1 -0.83704,1.35436 0.29244,3 2.05902,3 0.79255,0 1.44098,-0.9 1.44098,-2 z m -51.49999,-3 -4.92482,-5 h -16.07175 -16.07175 l -5.21584,-5.281445 -5.21584,-5.281446 v -8.218554 c 0,-8.0997925 0.0361,-8.2185555 2.5,-8.2185555 2.4531,0 2.5,0.146412 2.5,7.8038335 0,7.51461 0.12222,7.922289 3.29761,11 l 3.2976,3.196167 h 16.48656 16.48655 l 5.43168,5.5 5.43168,5.5 h 8.05391 8.05391 l 9.23025,-9.268789 c 5.07663,-5.097834 9.23024,-9.957834 9.23024,-10.8 0,-3.477322 5.22451,-5.3067089 7.8,-2.731211 2.59169,2.591694 0.74224,7.8 -2.76975,7.8 -0.86336,0 -5.82698,4.275 -11.03025,9.5 l -9.46049,9.5 h -11.05734 -11.05734 z m 48.37964,-19.64501 c -0.87143,-1.050011 -1.47465,-1.106074 -2.52466,-0.234642 -1.05001,0.871431 -1.10607,1.474651 -0.23464,2.524662 0.87144,1.050011 1.47465,1.106074 2.52466,0.234642 1.05001,-0.871431 1.10607,-1.474651 0.23464,-2.524662 z M 32.027977,25.447663 c -2.90119,-2.971082 -3.70295,-4.582206 -3.70295,-7.440983 0,-2.006851 -0.45,-3.926935 -1,-4.266854 -1.79317,-1.108243 -1.13631,-6.3566838 0.93426,-7.4648163 3.05351,-1.6341912 4.89222,-1.2296422 6.6577,1.4648162 1.50954,2.3038521 1.51135,2.6933881 0.023,4.9648171 -2.26224,3.452611 -2.01104,6.814506 0.69944,9.360869 2.25374,2.117275 2.99623,2.174314 28.30383,2.174314 h 25.989386 l 3.196167,-3.297607 c 3.032832,-3.129089 3.196167,-3.691225 3.196167,-11.0000003 0,-7.5492192 0.04972,-7.7023932 2.5,-7.7023932 2.465483,0 2.500003,0.11439 2.500003,8.2841605 v 8.28416 l -5.281448,5.21584 -5.281446,5.21584 h -27.515609 -27.5156 z m 0.79705,-15.207837 c 0,-0.8099356 -0.7875,-1.6242687 -1.75,-1.8096292 -1.22785,-0.2364621 -1.75,0.3034805 -1.75,1.8096292 0,1.506149 0.52215,2.046091 1.75,1.809629 0.9625,-0.18536 1.75,-0.999694 1.75,-1.809629 z m 133.330873,17.75 c -2.39435,-1.929191 -2.82506,-4.313278 -1.19873,-6.635198 1.53083,-2.185564 5.77983,-2.875269 6.86786,-1.114802 0.33992,0.55 2.04339,1 3.7855,1 2.59321,0 4.48615,-1.309885 10.44098,-7.224972 4.78277,-4.7508451 7.27352,-8.0040361 7.27352,-9.5000005 0,-1.760029 0.56593,-2.275028 2.5,-2.275028 2.15712,0 2.5,0.448611 2.5,3.2708497 0,2.7822425 -1.31005,4.5748298 -8.76978,11.9999998 -7.60698,7.571732 -9.23124,8.733849 -12.25,8.764586 -1.91412,0.01949 -4.60522,0.678544 -5.98022,1.464565 -3.10572,1.775387 -3.26631,1.783155 -5.16913,0.25 z m 4.05902,-3.117321 c 0.85828,-1.03417 0.79862,-1.646307 -0.24488,-2.512331 -1.05407,-0.874804 -1.66726,-0.798459 -2.59842,0.323516 -1.20865,1.456331 -0.68314,3.556136 0.88998,3.556136 0.4502,0 1.32919,-0.615295 1.95332,-1.367321 z m 57.82251,-0.417028 -4.71241,-4.784349 v -8.715651 c 0,-8.0489845 0.15298,-8.7156515 2,-8.7156515 1.81728,0 2,0.666667 2,7.2970526 0,7.1289239 0.0874,7.3823709 3.79216,10.9999999 3.64369,3.557965 4.0667,3.702948 10.80384,3.702948 6.61854,0 7.19087,-0.18489 10.20783,-3.297607 3.03284,-3.129089 3.19617,-3.691225 3.19617,-11.0000003 0,-7.5492192 0.0497,-7.7023932 2.5,-7.7023932 2.46548,0 2.5,0.11439 2.5,8.2841605 v 8.28416 l -5.28145,5.21584 -5.28144,5.21584 h -8.50615 -8.50614 z M 40.161737,17.78079 c -0.8952,-1.964749 -0.79038,-2.962719 0.52144,-4.964817 0.90302,-1.378179 1.64185,-4.321613 1.64185,-6.5409638 0,-3.6375287 0.24637,-4.0351837 2.5,-4.0351837 2.32935,0 2.5,0.337268 2.5,4.9409834 0,2.7175407 0.45,5.2190981 1,5.5590171 1.38226,0.854287 1.25559,4.844405 -0.2,6.3 -2.17047,2.170466 -6.7291,1.449724 -7.96329,-1.259036 z m 5.82746,-1.108181 c 0.83346,-2.171962 -1.28244,-4.214515 -2.79695,-2.7 -1.28004,1.280033 -0.48705,4.267217 1.13278,4.267217 0.58452,0 1.3334,-0.705248 1.66417,-1.567217 z m 10.45285,1.354512 c -0.88804,-2.400588 -0.39994,-5.494408 1.00369,-6.361896 0.48361,-0.298888 0.87929,-2.5418754 0.87929,-4.9844161 0,-4.0703814 0.20863,-4.4409834 2.5,-4.4409834 2.32935,0 2.5,0.337268 2.5,4.9409834 0,2.7175407 0.45,5.2190981 1,5.5590171 1.38226,0.854287 1.25559,4.844405 -0.2,6.3 -2.08458,2.084581 -6.76546,1.467588 -7.68298,-1.012705 z m 5.8222,-3.360533 c -1.27473,-1.535955 -3.93922,-0.794015 -3.93922,1.096893 0,1.748682 2.1903,2.452749 3.76233,1.209394 0.91896,-0.726822 0.96707,-1.354173 0.17689,-2.306287 z m 16.26078,4.373238 c -1.66251,-1.662514 -1.50183,-5.304611 0.3,-6.8 0.915309,-0.759639 1.5,-2.9512354 1.5,-5.6224448 0,-3.7108887 0.304584,-4.3775557 2,-4.3775557 1.695416,0 2,0.666667 2,4.3775557 0,2.6712094 0.584691,4.8628058 1.5,5.6224448 1.801833,1.495389 1.962514,5.137486 0.3,6.8 -0.66,0.66 -2.37,1.2 -3.8,1.2 -1.43,0 -3.14,-0.54 -3.8,-1.2 z m 5.464167,-2.367217 c 0.83346,-2.171962 -1.282435,-4.214515 -2.79695,-2.7 -1.280033,1.280033 -0.487051,4.267217 1.132783,4.267217 0.584523,0 1.333399,-0.705248 1.664167,-1.567217 z m 53.433686,1.317217 c -1.18126,-3.172782 0.198,-6.190431 3.011,-6.587662 3.29447,-0.465223 6.89115,-4.0334553 6.89115,-6.8366525 0,-1.814065 0.54997,-2.325686 2.5,-2.325686 2.16358,0 2.5,0.445807 2.5,3.3129092 0,2.3756359 -0.84875,4.1260592 -3,6.1870913 -1.65,1.5808 -3,3.599991 -3,4.487091 0,4.291017 -7.41426,5.759276 -8.90215,1.762909 z m 5.84137,-3.323238 c -1.27473,-1.535955 -3.93922,-0.794015 -3.93922,1.096893 0,1.748682 2.1903,2.452749 3.76233,1.209394 0.91896,-0.726822 0.96707,-1.354173 0.17689,-2.306287 z m 14.06078,1.573238 c -1.1,-1.1 -2,-2.605256 -2,-3.345012 0,-3.2786971 6.8991,-6.2452998 8.5,-3.6549881 0.33992,0.55 2.77173,1.0000001 5.40403,1.0000001 5.27197,0 8.09597,-2.0331541 8.09597,-5.8287405 0,-1.649343 0.60094,-2.17126 2.5,-2.17126 4.04784,0 3.3913,4.7237775 -1.29216,9.2970525 -3.20722,3.131761 -4.4798,3.707854 -8.25,3.734751 -2.45181,0.01749 -5.33135,0.692492 -6.39897,1.5 -2.61249,1.975987 -4.17802,1.849052 -6.55887,-0.531803 z m 5,-3 c 0,-2.070306 -2.41251,-2.759595 -3.5,-1 -0.83704,1.35436 0.29243,3 2.05902,3 0.79254,0 1.44098,-0.9 1.44098,-2 z m 76,3 c -2.38321,-2.383197 -2.54329,-4.304226 -0.5,-6 0.82499,-0.6846893 1.5,-2.7647894 1.5,-4.6224448 0,-2.9360587 0.32678,-3.3775557 2.5,-3.3775557 2.1823,0 2.5,0.437268 2.5,3.4409834 0,1.8925407 0.44999,3.7190983 1,4.059017 1.53519,0.9488061 1.18705,5.1700891 -0.57144,6.9285711 -2.10675,2.106754 -4.02085,1.979148 -6.42856,-0.428571 z m 5,-3 c 0,-1.1 -0.64844,-2 -1.44099,-2 -1.76658,0 -2.89605,1.64564 -2.05901,3 1.08749,1.759595 3.5,1.070306 3.5,-1 z M 68.022847,13.458419 c -2.09721,-2.317397 -2.16927,-4.5824381 -0.19782,-6.2185931 0.825,-0.6846892 1.5,-2.0897893 1.5,-3.1224444 0,-1.288153 0.71627,-1.877556 2.28169,-1.877556 1.85127,0 2.54041,0.876258 3.65326,4.6452505 0.94742,3.208701 1.06105,5.141521 0.36745,6.25 -1.46849,2.346886 -5.61379,2.523141 -7.60458,0.323343 z m 5.30218,-3.218593 c 0,-2.0703065 -2.41251,-2.7595952 -3.5,-1.0000001 -0.83704,1.3543601 0.29243,3.0000001 2.05902,3.0000001 0.79254,0 1.44098,-0.9 1.44098,-2 z"
       id="path853" />
    <path
       style="fill:#000000"
       id="path847"
       d="" />
  </g>
</svg>
